# MagicaVoxel @ Ephtracy

# group
o props_farm

# material
mtllib overworld-15-props_farm.mtl
usemtl palette

# normals
vn -1 0 0
vn 1 0 0
vn 0 0 1
vn 0 0 -1
vn 0 -1 0
vn 0 1 0

# texcoords
vt 0.341797 0.5
vt 0.568359 0.5
vt 0.591797 0.5

# verts
v 5.4 0 -14
v 5.4 0 -15.1
v 5.4 0.1 -14
v 5.4 0.1 -14.1
v 5.4 0.1 -14.4
v 5.4 0.1 -14.5
v 5.4 0.1 -14.8
v 5.4 0.1 -14.9
v 5.4 0.1 -15.1
v 5.4 0.2 -14
v 5.4 0.2 -14.1
v 5.4 0.2 -14.4
v 5.4 0.2 -14.5
v 5.4 0.2 -14.8
v 5.4 0.2 -14.9
v 5.5 0.1 -14.2
v 5.5 0.1 -14.3
v 5.5 0.1 -14.6
v 5.5 0.1 -14.7
v 5.5 0.1 -15
v 5.5 0.1 -15.1
v 5.5 0.2 -14.2
v 5.5 0.2 -14.3
v 5.5 0.2 -14.6
v 5.5 0.2 -14.7
v 5.5 0.2 -15
v 5.5 0.2 -15.1
v 5.7 0 -14
v 5.7 0 -15.1
v 5.7 0.1 -14
v 5.7 0.1 -14.1
v 5.7 0.1 -14.2
v 5.7 0.1 -14.3
v 5.7 0.1 -14.4
v 5.7 0.1 -14.5
v 5.7 0.1 -14.6
v 5.7 0.1 -14.7
v 5.7 0.1 -14.8
v 5.7 0.1 -14.9
v 5.7 0.1 -15
v 5.7 0.1 -15.1
v 5.7 0.2 -14
v 5.7 0.2 -14.1
v 5.7 0.2 -14.2
v 5.7 0.2 -14.3
v 5.7 0.2 -14.4
v 5.7 0.2 -14.5
v 5.7 0.2 -14.6
v 5.7 0.2 -14.7
v 5.7 0.2 -14.8
v 5.7 0.2 -14.9
v 5.7 0.2 -15
v 5.7 0.2 -15.1
v 5.8 0.1 -14.1
v 5.8 0.1 -14.2
v 5.8 0.1 -14.3
v 5.8 0.1 -14.4
v 5.8 0.1 -14.5
v 5.8 0.1 -14.6
v 5.8 0.1 -14.7
v 5.8 0.1 -14.8
v 5.8 0.1 -14.9
v 5.8 0.1 -15
v 5.8 0.2 -14.1
v 5.8 0.2 -14.2
v 5.8 0.2 -14.3
v 5.8 0.2 -14.4
v 5.8 0.2 -14.5
v 5.8 0.2 -14.6
v 5.8 0.2 -14.7
v 5.8 0.2 -14.8
v 5.8 0.2 -14.9
v 5.8 0.2 -15
v 6 0 -14
v 6 0 -15.1
v 6 0.1 -14
v 6 0.1 -14.1
v 6 0.1 -14.4
v 6 0.1 -14.5
v 6 0.1 -14.8
v 6 0.1 -14.9
v 6 0.1 -15.1
v 6 0.2 -14
v 6 0.2 -14.1
v 6 0.2 -14.4
v 6 0.2 -14.5
v 6 0.2 -14.8
v 6 0.2 -14.9
v 6.1 0.1 -14.2
v 6.1 0.1 -14.3
v 6.1 0.1 -14.6
v 6.1 0.1 -14.7
v 6.1 0.1 -15
v 6.1 0.1 -15.1
v 6.1 0.2 -14.2
v 6.1 0.2 -14.3
v 6.1 0.2 -14.6
v 6.1 0.2 -14.7
v 6.1 0.2 -15
v 6.1 0.2 -15.1
v 5.5 0.1 -14
v 5.5 0.1 -14.1
v 5.5 0.1 -14.4
v 5.5 0.1 -14.5
v 5.5 0.1 -14.8
v 5.5 0.1 -14.9
v 5.5 0.2 -14
v 5.5 0.2 -14.1
v 5.5 0.2 -14.4
v 5.5 0.2 -14.5
v 5.5 0.2 -14.8
v 5.5 0.2 -14.9
v 5.6 0 -14
v 5.6 0 -15.1
v 5.6 0.1 -14
v 5.6 0.1 -14.2
v 5.6 0.1 -14.3
v 5.6 0.1 -14.6
v 5.6 0.1 -14.7
v 5.6 0.1 -15
v 5.6 0.1 -15.1
v 5.6 0.2 -14.2
v 5.6 0.2 -14.3
v 5.6 0.2 -14.6
v 5.6 0.2 -14.7
v 5.6 0.2 -15
v 5.6 0.2 -15.1
v 5.8 0.1 -14
v 5.8 0.1 -14.1
v 5.8 0.1 -14.2
v 5.8 0.1 -14.3
v 5.8 0.1 -14.4
v 5.8 0.1 -14.5
v 5.8 0.1 -14.6
v 5.8 0.1 -14.7
v 5.8 0.1 -14.8
v 5.8 0.1 -14.9
v 5.8 0.1 -15
v 5.8 0.1 -15.1
v 5.8 0.2 -14
v 5.8 0.2 -14.1
v 5.8 0.2 -14.2
v 5.8 0.2 -14.3
v 5.8 0.2 -14.4
v 5.8 0.2 -14.5
v 5.8 0.2 -14.6
v 5.8 0.2 -14.7
v 5.8 0.2 -14.8
v 5.8 0.2 -14.9
v 5.8 0.2 -15
v 5.8 0.2 -15.1
v 5.9 0 -14
v 5.9 0 -15.1
v 5.9 0.1 -14
v 5.9 0.1 -14.1
v 5.9 0.1 -14.2
v 5.9 0.1 -14.3
v 5.9 0.1 -14.4
v 5.9 0.1 -14.5
v 5.9 0.1 -14.6
v 5.9 0.1 -14.7
v 5.9 0.1 -14.8
v 5.9 0.1 -14.9
v 5.9 0.1 -15
v 5.9 0.1 -15.1
v 5.9 0.2 -14.1
v 5.9 0.2 -14.2
v 5.9 0.2 -14.3
v 5.9 0.2 -14.4
v 5.9 0.2 -14.5
v 5.9 0.2 -14.6
v 5.9 0.2 -14.7
v 5.9 0.2 -14.8
v 5.9 0.2 -14.9
v 5.9 0.2 -15
v 6.1 0.1 -14
v 6.1 0.1 -14.1
v 6.1 0.1 -14.4
v 6.1 0.1 -14.5
v 6.1 0.1 -14.8
v 6.1 0.1 -14.9
v 6.1 0.2 -14
v 6.1 0.2 -14.1
v 6.1 0.2 -14.4
v 6.1 0.2 -14.5
v 6.1 0.2 -14.8
v 6.1 0.2 -14.9
v 6.2 0 -14
v 6.2 0 -15.1
v 6.2 0.1 -14
v 6.2 0.1 -14.2
v 6.2 0.1 -14.3
v 6.2 0.1 -14.6
v 6.2 0.1 -14.7
v 6.2 0.1 -15
v 6.2 0.1 -15.1
v 6.2 0.2 -14.2
v 6.2 0.2 -14.3
v 6.2 0.2 -14.6
v 6.2 0.2 -14.7
v 6.2 0.2 -15
v 6.2 0.2 -15.1
v 5.4 0 -14
v 5.4 0.1 -14
v 5.4 0.2 -14
v 5.5 0.1 -14
v 5.5 0.2 -14
v 5.6 0 -14
v 5.6 0.1 -14
v 5.7 0 -14
v 5.7 0.1 -14
v 5.7 0.2 -14
v 5.8 0.1 -14
v 5.8 0.2 -14
v 5.9 0 -14
v 5.9 0.1 -14
v 6 0 -14
v 6 0.1 -14
v 6 0.2 -14
v 6.1 0.1 -14
v 6.1 0.2 -14
v 6.2 0 -14
v 6.2 0.1 -14
v 5.8 0.1 -14.1
v 5.8 0.2 -14.1
v 5.9 0.1 -14.1
v 5.9 0.2 -14.1
v 5.5 0.1 -14.2
v 5.5 0.2 -14.2
v 5.6 0.1 -14.2
v 5.6 0.2 -14.2
v 5.7 0.1 -14.2
v 5.7 0.2 -14.2
v 5.8 0.1 -14.2
v 5.8 0.2 -14.2
v 6.1 0.1 -14.2
v 6.1 0.2 -14.2
v 6.2 0.1 -14.2
v 6.2 0.2 -14.2
v 5.8 0.1 -14.3
v 5.8 0.2 -14.3
v 5.9 0.1 -14.3
v 5.9 0.2 -14.3
v 5.4 0.1 -14.4
v 5.4 0.2 -14.4
v 5.5 0.1 -14.4
v 5.5 0.2 -14.4
v 5.7 0.1 -14.4
v 5.7 0.2 -14.4
v 5.8 0.1 -14.4
v 5.8 0.2 -14.4
v 6 0.1 -14.4
v 6 0.2 -14.4
v 6.1 0.1 -14.4
v 6.1 0.2 -14.4
v 5.8 0.1 -14.5
v 5.8 0.2 -14.5
v 5.9 0.1 -14.5
v 5.9 0.2 -14.5
v 5.5 0.1 -14.6
v 5.5 0.2 -14.6
v 5.6 0.1 -14.6
v 5.6 0.2 -14.6
v 5.7 0.1 -14.6
v 5.7 0.2 -14.6
v 5.8 0.1 -14.6
v 5.8 0.2 -14.6
v 6.1 0.1 -14.6
v 6.1 0.2 -14.6
v 6.2 0.1 -14.6
v 6.2 0.2 -14.6
v 5.8 0.1 -14.7
v 5.8 0.2 -14.7
v 5.9 0.1 -14.7
v 5.9 0.2 -14.7
v 5.4 0.1 -14.8
v 5.4 0.2 -14.8
v 5.5 0.1 -14.8
v 5.5 0.2 -14.8
v 5.7 0.1 -14.8
v 5.7 0.2 -14.8
v 5.8 0.1 -14.8
v 5.8 0.2 -14.8
v 6 0.1 -14.8
v 6 0.2 -14.8
v 6.1 0.1 -14.8
v 6.1 0.2 -14.8
v 5.8 0.1 -14.9
v 5.8 0.2 -14.9
v 5.9 0.1 -14.9
v 5.9 0.2 -14.9
v 5.5 0.1 -15
v 5.5 0.2 -15
v 5.6 0.1 -15
v 5.6 0.2 -15
v 5.7 0.1 -15
v 5.7 0.2 -15
v 5.8 0.1 -15
v 5.8 0.2 -15
v 6.1 0.1 -15
v 6.1 0.2 -15
v 6.2 0.1 -15
v 6.2 0.2 -15
v 5.4 0.1 -14.1
v 5.4 0.2 -14.1
v 5.5 0.1 -14.1
v 5.5 0.2 -14.1
v 5.7 0.1 -14.1
v 5.7 0.2 -14.1
v 5.8 0.1 -14.1
v 5.8 0.2 -14.1
v 6 0.1 -14.1
v 6 0.2 -14.1
v 6.1 0.1 -14.1
v 6.1 0.2 -14.1
v 5.8 0.1 -14.2
v 5.8 0.2 -14.2
v 5.9 0.1 -14.2
v 5.9 0.2 -14.2
v 5.5 0.1 -14.3
v 5.5 0.2 -14.3
v 5.6 0.1 -14.3
v 5.6 0.2 -14.3
v 5.7 0.1 -14.3
v 5.7 0.2 -14.3
v 5.8 0.1 -14.3
v 5.8 0.2 -14.3
v 6.1 0.1 -14.3
v 6.1 0.2 -14.3
v 6.2 0.1 -14.3
v 6.2 0.2 -14.3
v 5.8 0.1 -14.4
v 5.8 0.2 -14.4
v 5.9 0.1 -14.4
v 5.9 0.2 -14.4
v 5.4 0.1 -14.5
v 5.4 0.2 -14.5
v 5.5 0.1 -14.5
v 5.5 0.2 -14.5
v 5.7 0.1 -14.5
v 5.7 0.2 -14.5
v 5.8 0.1 -14.5
v 5.8 0.2 -14.5
v 6 0.1 -14.5
v 6 0.2 -14.5
v 6.1 0.1 -14.5
v 6.1 0.2 -14.5
v 5.8 0.1 -14.6
v 5.8 0.2 -14.6
v 5.9 0.1 -14.6
v 5.9 0.2 -14.6
v 5.5 0.1 -14.7
v 5.5 0.2 -14.7
v 5.6 0.1 -14.7
v 5.6 0.2 -14.7
v 5.7 0.1 -14.7
v 5.7 0.2 -14.7
v 5.8 0.1 -14.7
v 5.8 0.2 -14.7
v 6.1 0.1 -14.7
v 6.1 0.2 -14.7
v 6.2 0.1 -14.7
v 6.2 0.2 -14.7
v 5.8 0.1 -14.8
v 5.8 0.2 -14.8
v 5.9 0.1 -14.8
v 5.9 0.2 -14.8
v 5.4 0.1 -14.9
v 5.4 0.2 -14.9
v 5.5 0.1 -14.9
v 5.5 0.2 -14.9
v 5.7 0.1 -14.9
v 5.7 0.2 -14.9
v 5.8 0.1 -14.9
v 5.8 0.2 -14.9
v 6 0.1 -14.9
v 6 0.2 -14.9
v 6.1 0.1 -14.9
v 6.1 0.2 -14.9
v 5.8 0.1 -15
v 5.8 0.2 -15
v 5.9 0.1 -15
v 5.9 0.2 -15
v 5.4 0 -15.1
v 5.4 0.1 -15.1
v 5.5 0.1 -15.1
v 5.5 0.2 -15.1
v 5.6 0 -15.1
v 5.6 0.1 -15.1
v 5.6 0.2 -15.1
v 5.7 0 -15.1
v 5.7 0.1 -15.1
v 5.7 0.2 -15.1
v 5.8 0.1 -15.1
v 5.8 0.2 -15.1
v 5.9 0 -15.1
v 5.9 0.1 -15.1
v 6 0 -15.1
v 6 0.1 -15.1
v 6.1 0.1 -15.1
v 6.1 0.2 -15.1
v 6.2 0 -15.1
v 6.2 0.1 -15.1
v 6.2 0.2 -15.1
v 5.4 0 -14
v 5.6 0 -14
v 5.7 0 -14
v 5.9 0 -14
v 6 0 -14
v 6.2 0 -14
v 5.4 0 -15.1
v 5.6 0 -15.1
v 5.7 0 -15.1
v 5.9 0 -15.1
v 6 0 -15.1
v 6.2 0 -15.1
v 5.5 0.1 -14
v 5.6 0.1 -14
v 5.8 0.1 -14
v 5.9 0.1 -14
v 6.1 0.1 -14
v 6.2 0.1 -14
v 5.4 0.1 -14.1
v 5.5 0.1 -14.1
v 5.7 0.1 -14.1
v 5.8 0.1 -14.1
v 5.9 0.1 -14.1
v 6 0.1 -14.1
v 6.1 0.1 -14.1
v 5.5 0.1 -14.2
v 5.6 0.1 -14.2
v 5.7 0.1 -14.2
v 5.8 0.1 -14.2
v 5.9 0.1 -14.2
v 6.1 0.1 -14.2
v 6.2 0.1 -14.2
v 5.5 0.1 -14.3
v 5.6 0.1 -14.3
v 5.7 0.1 -14.3
v 5.8 0.1 -14.3
v 5.9 0.1 -14.3
v 6.1 0.1 -14.3
v 6.2 0.1 -14.3
v 5.4 0.1 -14.4
v 5.5 0.1 -14.4
v 5.7 0.1 -14.4
v 5.8 0.1 -14.4
v 5.9 0.1 -14.4
v 6 0.1 -14.4
v 6.1 0.1 -14.4
v 5.4 0.1 -14.5
v 5.5 0.1 -14.5
v 5.7 0.1 -14.5
v 5.8 0.1 -14.5
v 5.9 0.1 -14.5
v 6 0.1 -14.5
v 6.1 0.1 -14.5
v 5.5 0.1 -14.6
v 5.6 0.1 -14.6
v 5.7 0.1 -14.6
v 5.8 0.1 -14.6
v 5.9 0.1 -14.6
v 6.1 0.1 -14.6
v 6.2 0.1 -14.6
v 5.5 0.1 -14.7
v 5.6 0.1 -14.7
v 5.7 0.1 -14.7
v 5.8 0.1 -14.7
v 5.9 0.1 -14.7
v 6.1 0.1 -14.7
v 6.2 0.1 -14.7
v 5.4 0.1 -14.8
v 5.5 0.1 -14.8
v 5.7 0.1 -14.8
v 5.8 0.1 -14.8
v 5.9 0.1 -14.8
v 6 0.1 -14.8
v 6.1 0.1 -14.8
v 5.4 0.1 -14.9
v 5.5 0.1 -14.9
v 5.7 0.1 -14.9
v 5.8 0.1 -14.9
v 5.9 0.1 -14.9
v 6 0.1 -14.9
v 6.1 0.1 -14.9
v 5.5 0.1 -15
v 5.6 0.1 -15
v 5.7 0.1 -15
v 5.8 0.1 -15
v 5.9 0.1 -15
v 6.1 0.1 -15
v 6.2 0.1 -15
v 5.4 0.1 -15.1
v 5.5 0.1 -15.1
v 5.8 0.1 -15.1
v 5.9 0.1 -15.1
v 6 0.1 -15.1
v 6.1 0.1 -15.1
v 5.4 0.2 -14
v 5.5 0.2 -14
v 5.7 0.2 -14
v 5.8 0.2 -14
v 6 0.2 -14
v 6.1 0.2 -14
v 5.4 0.2 -14.1
v 5.5 0.2 -14.1
v 5.7 0.2 -14.1
v 5.8 0.2 -14.1
v 5.9 0.2 -14.1
v 6 0.2 -14.1
v 6.1 0.2 -14.1
v 5.5 0.2 -14.2
v 5.6 0.2 -14.2
v 5.7 0.2 -14.2
v 5.8 0.2 -14.2
v 5.9 0.2 -14.2
v 6.1 0.2 -14.2
v 6.2 0.2 -14.2
v 5.5 0.2 -14.3
v 5.6 0.2 -14.3
v 5.7 0.2 -14.3
v 5.8 0.2 -14.3
v 5.9 0.2 -14.3
v 6.1 0.2 -14.3
v 6.2 0.2 -14.3
v 5.4 0.2 -14.4
v 5.5 0.2 -14.4
v 5.7 0.2 -14.4
v 5.8 0.2 -14.4
v 5.9 0.2 -14.4
v 6 0.2 -14.4
v 6.1 0.2 -14.4
v 5.4 0.2 -14.5
v 5.5 0.2 -14.5
v 5.7 0.2 -14.5
v 5.8 0.2 -14.5
v 5.9 0.2 -14.5
v 6 0.2 -14.5
v 6.1 0.2 -14.5
v 5.5 0.2 -14.6
v 5.6 0.2 -14.6
v 5.7 0.2 -14.6
v 5.8 0.2 -14.6
v 5.9 0.2 -14.6
v 6.1 0.2 -14.6
v 6.2 0.2 -14.6
v 5.5 0.2 -14.7
v 5.6 0.2 -14.7
v 5.7 0.2 -14.7
v 5.8 0.2 -14.7
v 5.9 0.2 -14.7
v 6.1 0.2 -14.7
v 6.2 0.2 -14.7
v 5.4 0.2 -14.8
v 5.5 0.2 -14.8
v 5.7 0.2 -14.8
v 5.8 0.2 -14.8
v 5.9 0.2 -14.8
v 6 0.2 -14.8
v 6.1 0.2 -14.8
v 5.4 0.2 -14.9
v 5.5 0.2 -14.9
v 5.7 0.2 -14.9
v 5.8 0.2 -14.9
v 5.9 0.2 -14.9
v 6 0.2 -14.9
v 6.1 0.2 -14.9
v 5.5 0.2 -15
v 5.6 0.2 -15
v 5.7 0.2 -15
v 5.8 0.2 -15
v 5.9 0.2 -15
v 6.1 0.2 -15
v 6.2 0.2 -15
v 5.5 0.2 -15.1
v 5.6 0.2 -15.1
v 5.7 0.2 -15.1
v 5.8 0.2 -15.1
v 6.1 0.2 -15.1
v 6.2 0.2 -15.1

# faces
f 3/1/1 2/1/1 1/1/1
f 4/1/1 2/1/1 3/1/1
f 5/1/1 2/1/1 4/1/1
f 6/1/1 2/1/1 5/1/1
f 7/1/1 2/1/1 6/1/1
f 8/1/1 2/1/1 7/1/1
f 9/1/1 2/1/1 8/1/1
f 10/3/1 4/3/1 3/3/1
f 11/3/1 4/3/1 10/3/1
f 12/3/1 6/3/1 5/3/1
f 13/3/1 6/3/1 12/3/1
f 14/3/1 8/3/1 7/3/1
f 15/3/1 8/3/1 14/3/1
f 22/3/1 17/3/1 16/3/1
f 23/3/1 17/3/1 22/3/1
f 24/3/1 19/3/1 18/3/1
f 25/3/1 19/3/1 24/3/1
f 26/3/1 21/3/1 20/3/1
f 27/3/1 21/3/1 26/3/1
f 30/1/1 29/1/1 28/1/1
f 31/1/1 29/1/1 30/1/1
f 32/1/1 29/1/1 31/1/1
f 33/1/1 29/1/1 32/1/1
f 34/1/1 29/1/1 33/1/1
f 35/1/1 29/1/1 34/1/1
f 36/1/1 29/1/1 35/1/1
f 37/1/1 29/1/1 36/1/1
f 38/1/1 29/1/1 37/1/1
f 39/1/1 29/1/1 38/1/1
f 40/1/1 29/1/1 39/1/1
f 41/1/1 29/1/1 40/1/1
f 42/2/1 31/2/1 30/2/1
f 43/2/1 31/2/1 42/2/1
f 44/2/1 33/2/1 32/2/1
f 45/2/1 33/2/1 44/2/1
f 46/2/1 35/2/1 34/2/1
f 47/2/1 35/2/1 46/2/1
f 48/2/1 37/2/1 36/2/1
f 49/2/1 37/2/1 48/2/1
f 50/2/1 39/2/1 38/2/1
f 51/2/1 39/2/1 50/2/1
f 52/2/1 41/2/1 40/2/1
f 53/2/1 41/2/1 52/2/1
f 64/2/1 55/2/1 54/2/1
f 65/2/1 55/2/1 64/2/1
f 66/2/1 57/2/1 56/2/1
f 67/2/1 57/2/1 66/2/1
f 68/2/1 59/2/1 58/2/1
f 69/2/1 59/2/1 68/2/1
f 70/2/1 61/2/1 60/2/1
f 71/2/1 61/2/1 70/2/1
f 72/2/1 63/2/1 62/2/1
f 73/2/1 63/2/1 72/2/1
f 76/1/1 75/1/1 74/1/1
f 77/1/1 75/1/1 76/1/1
f 78/1/1 75/1/1 77/1/1
f 79/1/1 75/1/1 78/1/1
f 80/1/1 75/1/1 79/1/1
f 81/1/1 75/1/1 80/1/1
f 82/1/1 75/1/1 81/1/1
f 83/3/1 77/3/1 76/3/1
f 84/3/1 77/3/1 83/3/1
f 85/3/1 79/3/1 78/3/1
f 86/3/1 79/3/1 85/3/1
f 87/3/1 81/3/1 80/3/1
f 88/3/1 81/3/1 87/3/1
f 95/3/1 90/3/1 89/3/1
f 96/3/1 90/3/1 95/3/1
f 97/3/1 92/3/1 91/3/1
f 98/3/1 92/3/1 97/3/1
f 99/3/1 94/3/1 93/3/1
f 100/3/1 94/3/1 99/3/1
f 101/3/2 102/3/2 107/3/2
f 107/3/2 102/3/2 108/3/2
f 103/3/2 104/3/2 109/3/2
f 109/3/2 104/3/2 110/3/2
f 105/3/2 106/3/2 111/3/2
f 111/3/2 106/3/2 112/3/2
f 113/1/2 114/1/2 115/1/2
f 115/1/2 114/1/2 116/1/2
f 116/1/2 114/1/2 117/1/2
f 117/1/2 114/1/2 118/1/2
f 118/1/2 114/1/2 119/1/2
f 119/1/2 114/1/2 120/1/2
f 120/1/2 114/1/2 121/1/2
f 116/3/2 117/3/2 122/3/2
f 122/3/2 117/3/2 123/3/2
f 118/3/2 119/3/2 124/3/2
f 124/3/2 119/3/2 125/3/2
f 120/3/2 121/3/2 126/3/2
f 126/3/2 121/3/2 127/3/2
f 128/2/2 129/2/2 140/2/2
f 140/2/2 129/2/2 141/2/2
f 130/2/2 131/2/2 142/2/2
f 142/2/2 131/2/2 143/2/2
f 132/2/2 133/2/2 144/2/2
f 144/2/2 133/2/2 145/2/2
f 134/2/2 135/2/2 146/2/2
f 146/2/2 135/2/2 147/2/2
f 136/2/2 137/2/2 148/2/2
f 148/2/2 137/2/2 149/2/2
f 138/2/2 139/2/2 150/2/2
f 150/2/2 139/2/2 151/2/2
f 152/1/2 153/1/2 154/1/2
f 154/1/2 153/1/2 155/1/2
f 155/1/2 153/1/2 156/1/2
f 156/1/2 153/1/2 157/1/2
f 157/1/2 153/1/2 158/1/2
f 158/1/2 153/1/2 159/1/2
f 159/1/2 153/1/2 160/1/2
f 160/1/2 153/1/2 161/1/2
f 161/1/2 153/1/2 162/1/2
f 162/1/2 153/1/2 163/1/2
f 163/1/2 153/1/2 164/1/2
f 164/1/2 153/1/2 165/1/2
f 155/2/2 156/2/2 166/2/2
f 166/2/2 156/2/2 167/2/2
f 157/2/2 158/2/2 168/2/2
f 168/2/2 158/2/2 169/2/2
f 159/2/2 160/2/2 170/2/2
f 170/2/2 160/2/2 171/2/2
f 161/2/2 162/2/2 172/2/2
f 172/2/2 162/2/2 173/2/2
f 163/2/2 164/2/2 174/2/2
f 174/2/2 164/2/2 175/2/2
f 176/3/2 177/3/2 182/3/2
f 182/3/2 177/3/2 183/3/2
f 178/3/2 179/3/2 184/3/2
f 184/3/2 179/3/2 185/3/2
f 180/3/2 181/3/2 186/3/2
f 186/3/2 181/3/2 187/3/2
f 188/1/2 189/1/2 190/1/2
f 190/1/2 189/1/2 191/1/2
f 191/1/2 189/1/2 192/1/2
f 192/1/2 189/1/2 193/1/2
f 193/1/2 189/1/2 194/1/2
f 194/1/2 189/1/2 195/1/2
f 195/1/2 189/1/2 196/1/2
f 191/3/2 192/3/2 197/3/2
f 197/3/2 192/3/2 198/3/2
f 193/3/2 194/3/2 199/3/2
f 199/3/2 194/3/2 200/3/2
f 195/3/2 196/3/2 201/3/2
f 201/3/2 196/3/2 202/3/2
f 206/1/3 204/1/3 203/1/3
f 206/3/3 205/3/3 204/3/3
f 207/3/3 205/3/3 206/3/3
f 208/1/3 206/1/3 203/1/3
f 209/1/3 206/1/3 208/1/3
f 213/1/3 211/1/3 210/1/3
f 213/2/3 212/2/3 211/2/3
f 214/2/3 212/2/3 213/2/3
f 215/1/3 213/1/3 210/1/3
f 216/1/3 213/1/3 215/1/3
f 220/1/3 218/1/3 217/1/3
f 220/3/3 219/3/3 218/3/3
f 221/3/3 219/3/3 220/3/3
f 222/1/3 220/1/3 217/1/3
f 223/1/3 220/1/3 222/1/3
f 226/2/3 225/2/3 224/2/3
f 227/2/3 225/2/3 226/2/3
f 230/3/3 229/3/3 228/3/3
f 231/3/3 229/3/3 230/3/3
f 234/2/3 233/2/3 232/2/3
f 235/2/3 233/2/3 234/2/3
f 238/3/3 237/3/3 236/3/3
f 239/3/3 237/3/3 238/3/3
f 242/2/3 241/2/3 240/2/3
f 243/2/3 241/2/3 242/2/3
f 246/3/3 245/3/3 244/3/3
f 247/3/3 245/3/3 246/3/3
f 250/2/3 249/2/3 248/2/3
f 251/2/3 249/2/3 250/2/3
f 254/3/3 253/3/3 252/3/3
f 255/3/3 253/3/3 254/3/3
f 258/2/3 257/2/3 256/2/3
f 259/2/3 257/2/3 258/2/3
f 262/3/3 261/3/3 260/3/3
f 263/3/3 261/3/3 262/3/3
f 266/2/3 265/2/3 264/2/3
f 267/2/3 265/2/3 266/2/3
f 270/3/3 269/3/3 268/3/3
f 271/3/3 269/3/3 270/3/3
f 274/2/3 273/2/3 272/2/3
f 275/2/3 273/2/3 274/2/3
f 278/3/3 277/3/3 276/3/3
f 279/3/3 277/3/3 278/3/3
f 282/2/3 281/2/3 280/2/3
f 283/2/3 281/2/3 282/2/3
f 286/3/3 285/3/3 284/3/3
f 287/3/3 285/3/3 286/3/3
f 290/2/3 289/2/3 288/2/3
f 291/2/3 289/2/3 290/2/3
f 294/3/3 293/3/3 292/3/3
f 295/3/3 293/3/3 294/3/3
f 298/2/3 297/2/3 296/2/3
f 299/2/3 297/2/3 298/2/3
f 302/3/3 301/3/3 300/3/3
f 303/3/3 301/3/3 302/3/3
f 304/3/4 305/3/4 306/3/4
f 306/3/4 305/3/4 307/3/4
f 308/2/4 309/2/4 310/2/4
f 310/2/4 309/2/4 311/2/4
f 312/3/4 313/3/4 314/3/4
f 314/3/4 313/3/4 315/3/4
f 316/2/4 317/2/4 318/2/4
f 318/2/4 317/2/4 319/2/4
f 320/3/4 321/3/4 322/3/4
f 322/3/4 321/3/4 323/3/4
f 324/2/4 325/2/4 326/2/4
f 326/2/4 325/2/4 327/2/4
f 328/3/4 329/3/4 330/3/4
f 330/3/4 329/3/4 331/3/4
f 332/2/4 333/2/4 334/2/4
f 334/2/4 333/2/4 335/2/4
f 336/3/4 337/3/4 338/3/4
f 338/3/4 337/3/4 339/3/4
f 340/2/4 341/2/4 342/2/4
f 342/2/4 341/2/4 343/2/4
f 344/3/4 345/3/4 346/3/4
f 346/3/4 345/3/4 347/3/4
f 348/2/4 349/2/4 350/2/4
f 350/2/4 349/2/4 351/2/4
f 352/3/4 353/3/4 354/3/4
f 354/3/4 353/3/4 355/3/4
f 356/2/4 357/2/4 358/2/4
f 358/2/4 357/2/4 359/2/4
f 360/3/4 361/3/4 362/3/4
f 362/3/4 361/3/4 363/3/4
f 364/2/4 365/2/4 366/2/4
f 366/2/4 365/2/4 367/2/4
f 368/3/4 369/3/4 370/3/4
f 370/3/4 369/3/4 371/3/4
f 372/2/4 373/2/4 374/2/4
f 374/2/4 373/2/4 375/2/4
f 376/3/4 377/3/4 378/3/4
f 378/3/4 377/3/4 379/3/4
f 380/2/4 381/2/4 382/2/4
f 382/2/4 381/2/4 383/2/4
f 384/1/4 385/1/4 386/1/4
f 384/1/4 386/1/4 388/1/4
f 386/3/4 387/3/4 389/3/4
f 388/1/4 386/1/4 389/1/4
f 389/3/4 387/3/4 390/3/4
f 391/1/4 392/1/4 394/1/4
f 392/2/4 393/2/4 394/2/4
f 394/2/4 393/2/4 395/2/4
f 391/1/4 394/1/4 396/1/4
f 396/1/4 394/1/4 397/1/4
f 398/1/4 399/1/4 400/1/4
f 398/1/4 400/1/4 402/1/4
f 400/3/4 401/3/4 403/3/4
f 402/1/4 400/1/4 403/1/4
f 403/3/4 401/3/4 404/3/4
f 411/1/5 406/1/5 405/1/5
f 412/1/5 406/1/5 411/1/5
f 413/1/5 408/1/5 407/1/5
f 414/1/5 408/1/5 413/1/5
f 415/1/5 410/1/5 409/1/5
f 416/1/5 410/1/5 415/1/5
f 417/1/6 418/1/6 424/1/6
f 419/1/6 420/1/6 426/1/6
f 426/1/6 420/1/6 427/1/6
f 421/1/6 422/1/6 429/1/6
f 423/1/6 424/1/6 430/1/6
f 424/1/6 418/1/6 430/1/6
f 430/1/6 418/1/6 431/1/6
f 425/1/6 426/1/6 432/1/6
f 432/1/6 426/1/6 433/1/6
f 428/1/6 429/1/6 435/1/6
f 429/1/6 422/1/6 435/1/6
f 435/1/6 422/1/6 436/1/6
f 423/1/6 430/1/6 437/1/6
f 433/1/6 434/1/6 440/1/6
f 440/1/6 434/1/6 441/1/6
f 428/1/6 435/1/6 442/1/6
f 437/1/6 438/1/6 444/1/6
f 423/1/6 437/1/6 444/1/6
f 444/1/6 438/1/6 445/1/6
f 439/1/6 440/1/6 446/1/6
f 446/1/6 440/1/6 447/1/6
f 442/1/6 443/1/6 449/1/6
f 428/1/6 442/1/6 449/1/6
f 449/1/6 443/1/6 450/1/6
f 445/1/6 438/1/6 452/1/6
f 447/1/6 448/1/6 454/1/6
f 454/1/6 448/1/6 455/1/6
f 450/1/6 443/1/6 457/1/6
f 451/1/6 452/1/6 458/1/6
f 452/1/6 438/1/6 458/1/6
f 458/1/6 438/1/6 459/1/6
f 453/1/6 454/1/6 460/1/6
f 460/1/6 454/1/6 461/1/6
f 456/1/6 457/1/6 463/1/6
f 457/1/6 443/1/6 463/1/6
f 463/1/6 443/1/6 464/1/6
f 451/1/6 458/1/6 465/1/6
f 461/1/6 462/1/6 468/1/6
f 468/1/6 462/1/6 469/1/6
f 456/1/6 463/1/6 470/1/6
f 465/1/6 466/1/6 472/1/6
f 451/1/6 465/1/6 472/1/6
f 472/1/6 466/1/6 473/1/6
f 467/1/6 468/1/6 474/1/6
f 474/1/6 468/1/6 475/1/6
f 470/1/6 471/1/6 477/1/6
f 456/1/6 470/1/6 477/1/6
f 477/1/6 471/1/6 478/1/6
f 473/1/6 466/1/6 480/1/6
f 475/1/6 476/1/6 482/1/6
f 482/1/6 476/1/6 483/1/6
f 478/1/6 471/1/6 485/1/6
f 479/1/6 480/1/6 486/1/6
f 480/1/6 466/1/6 486/1/6
f 486/1/6 466/1/6 487/1/6
f 481/1/6 482/1/6 488/1/6
f 488/1/6 482/1/6 489/1/6
f 484/1/6 485/1/6 491/1/6
f 485/1/6 471/1/6 491/1/6
f 491/1/6 471/1/6 492/1/6
f 479/1/6 486/1/6 493/1/6
f 493/1/6 486/1/6 494/1/6
f 489/1/6 490/1/6 495/1/6
f 495/1/6 490/1/6 496/1/6
f 484/1/6 491/1/6 497/1/6
f 497/1/6 491/1/6 498/1/6
f 499/3/6 500/3/6 505/3/6
f 505/3/6 500/3/6 506/3/6
f 501/2/6 502/2/6 507/2/6
f 507/2/6 502/2/6 508/2/6
f 503/3/6 504/3/6 510/3/6
f 510/3/6 504/3/6 511/3/6
f 508/2/6 509/2/6 515/2/6
f 515/2/6 509/2/6 516/2/6
f 512/3/6 513/3/6 519/3/6
f 519/3/6 513/3/6 520/3/6
f 514/2/6 515/2/6 521/2/6
f 521/2/6 515/2/6 522/2/6
f 517/3/6 518/3/6 524/3/6
f 524/3/6 518/3/6 525/3/6
f 522/2/6 523/2/6 529/2/6
f 529/2/6 523/2/6 530/2/6
f 526/3/6 527/3/6 533/3/6
f 533/3/6 527/3/6 534/3/6
f 528/2/6 529/2/6 535/2/6
f 535/2/6 529/2/6 536/2/6
f 531/3/6 532/3/6 538/3/6
f 538/3/6 532/3/6 539/3/6
f 536/2/6 537/2/6 543/2/6
f 543/2/6 537/2/6 544/2/6
f 540/3/6 541/3/6 547/3/6
f 547/3/6 541/3/6 548/3/6
f 542/2/6 543/2/6 549/2/6
f 549/2/6 543/2/6 550/2/6
f 545/3/6 546/3/6 552/3/6
f 552/3/6 546/3/6 553/3/6
f 550/2/6 551/2/6 557/2/6
f 557/2/6 551/2/6 558/2/6
f 554/3/6 555/3/6 561/3/6
f 561/3/6 555/3/6 562/3/6
f 556/2/6 557/2/6 563/2/6
f 563/2/6 557/2/6 564/2/6
f 559/3/6 560/3/6 566/3/6
f 566/3/6 560/3/6 567/3/6
f 564/2/6 565/2/6 571/2/6
f 571/2/6 565/2/6 572/2/6
f 568/3/6 569/3/6 575/3/6
f 575/3/6 569/3/6 576/3/6
f 570/2/6 571/2/6 577/2/6
f 577/2/6 571/2/6 578/2/6
f 573/3/6 574/3/6 579/3/6
f 579/3/6 574/3/6 580/3/6
