# MagicaVoxel @ Ephtracy

# group
o props_windmill

# material
mtllib overworld-21-props_windmill.mtl
usemtl palette

# normals
vn -1 0 0
vn 1 0 0
vn 0 0 1
vn 0 0 -1
vn 0 -1 0
vn 0 1 0

# texcoords
vt 0.119141 0.5
vt 0.201172 0.5
vt 0.232422 0.5
vt 0.310547 0.5
vt 0.912109 0.5
vt 0.994141 0.5

# verts
v 2.7 0.5 -16.4
v 2.7 0.5 -16.5
v 2.7 0.6 -16.4
v 2.7 0.6 -16.5
v 2.8 0.4 -16.4
v 2.8 0.4 -16.5
v 2.8 0.5 -16.4
v 2.8 0.5 -16.5
v 2.9 0 -16.6
v 2.9 0 -16.7
v 2.9 0 -16.9
v 2.9 0.1 -16.7
v 2.9 0.1 -16.9
v 2.9 0.2 -16.6
v 2.9 0.2 -16.8
v 2.9 0.3 -16.6
v 2.9 0.3 -16.8
v 2.9 0.4 -16.7
v 2.9 0.4 -16.9
v 2.9 0.5 -16.7
v 2.9 0.5 -16.9
v 2.9 0.6 -16.6
v 2.9 0.6 -16.7
v 2.9 0.7 -16.4
v 2.9 0.7 -16.5
v 2.9 0.7 -16.6
v 2.9 0.7 -16.7
v 2.9 0.7 -16.9
v 2.9 0.7 -17
v 2.9 0.8 -16.5
v 2.9 0.8 -17
v 2.9 1 -16.4
v 2.9 1 -16.5
v 3 0 -16.5
v 3 0 -16.6
v 3 0 -16.9
v 3 0 -17
v 3 0.1 -16.5
v 3 0.1 -16.6
v 3 0.1 -16.9
v 3 0.2 -16.6
v 3 0.2 -16.9
v 3 0.2 -17
v 3 0.3 -16.6
v 3 0.3 -16.9
v 3 0.3 -17
v 3 0.4 -16.5
v 3 0.4 -16.6
v 3 0.4 -16.9
v 3 0.5 -16.5
v 3 0.5 -16.6
v 3 0.5 -16.9
v 3 0.6 -16.5
v 3 0.6 -16.6
v 3 0.6 -16.9
v 3 0.6 -17
v 3 0.7 -16.5
v 3 0.7 -16.6
v 3 0.7 -16.9
v 3 0.7 -17
v 3 0.8 -16.6
v 3 0.8 -16.9
v 3 0.9 -16.6
v 3 0.9 -16.9
v 3 1 -16.4
v 3 1 -16.5
v 3 1.1 -16.4
v 3 1.1 -16.5
v 3.1 0 -16.6
v 3.1 0 -16.7
v 3.1 0.1 -16.6
v 3.1 0.2 -16.6
v 3.1 0.2 -16.7
v 3.1 0.6 -16.3
v 3.1 0.6 -16.4
v 3.1 0.6 -16.5
v 3.1 0.7 -16.3
v 3.1 0.7 -16.4
v 3.1 0.7 -16.5
v 3.1 0.9 -16.7
v 3.1 0.9 -16.8
v 3.1 1 -16.7
v 3.1 1 -16.8
v 3.2 0 -16.5
v 3.2 0 -16.6
v 3.2 0.2 -16.4
v 3.2 0.2 -16.5
v 3.2 0.2 -16.6
v 3.2 0.3 -16.4
v 3.2 0.3 -16.5
v 3.2 0.6 -16.4
v 3.2 0.6 -16.5
v 3.2 0.6 -16.6
v 3.2 0.6 -16.7
v 3.2 0.6 -16.8
v 3.2 0.6 -16.9
v 3.2 0.7 -16.4
v 3.2 0.7 -16.5
v 3.2 0.7 -16.6
v 3.2 0.7 -16.7
v 3.2 0.7 -16.8
v 3.2 0.7 -16.9
v 3.2 0.8 -16.4
v 3.2 0.8 -16.5
v 3.2 0.9 -16.4
v 3.2 0.9 -16.5
v 3.3 0 -16.7
v 3.3 0 -16.8
v 3.3 0 -16.9
v 3.3 0.1 -16.6
v 3.3 0.1 -16.7
v 3.3 0.1 -16.8
v 3.3 0.1 -16.9
v 3.3 0.2 -16.6
v 3.3 0.2 -16.7
v 3.3 0.2 -16.9
v 3.3 0.3 -16.6
v 3.3 0.3 -16.7
v 3.3 0.3 -16.9
v 3.3 0.4 -16.6
v 3.3 0.4 -16.8
v 3.3 0.4 -16.9
v 3.3 0.5 -16.6
v 3.3 0.5 -16.8
v 3.3 0.5 -16.9
v 3.3 0.6 -16.6
v 3.3 0.6 -16.7
v 3.3 0.6 -16.8
v 3.3 0.6 -16.9
v 3.3 0.7 -16.7
v 3.3 0.7 -16.8
v 3 0 -16.6
v 3 0 -16.7
v 3 0 -16.9
v 3 0.1 -16.6
v 3 0.1 -16.7
v 3 0.1 -16.9
v 3 0.2 -16.6
v 3 0.2 -16.8
v 3 0.2 -16.9
v 3 0.3 -16.6
v 3 0.3 -16.8
v 3 0.3 -16.9
v 3 0.4 -16.6
v 3 0.4 -16.7
v 3 0.4 -16.9
v 3 0.5 -16.6
v 3 0.5 -16.7
v 3 0.5 -16.9
v 3 0.6 -16.6
v 3 0.6 -16.7
v 3 0.6 -16.8
v 3 0.6 -16.9
v 3 0.7 -16.7
v 3 0.7 -16.8
v 3.1 0 -16.5
v 3.1 0 -16.6
v 3.1 0.1 -16.5
v 3.1 0.1 -16.6
v 3.1 0.2 -16.5
v 3.1 0.2 -16.6
v 3.1 0.4 -16.4
v 3.1 0.4 -16.5
v 3.1 0.5 -16.4
v 3.1 0.5 -16.5
v 3.1 0.6 -16.4
v 3.1 0.6 -16.5
v 3.1 0.6 -16.6
v 3.1 0.6 -16.7
v 3.1 0.6 -16.8
v 3.1 0.6 -16.9
v 3.1 0.7 -16.4
v 3.1 0.7 -16.5
v 3.1 0.7 -16.6
v 3.1 0.7 -16.7
v 3.1 0.7 -16.8
v 3.1 0.7 -16.9
v 3.1 0.8 -16.5
v 3.1 1 -16.4
v 3.1 1 -16.5
v 3.1 1.1 -16.4
v 3.1 1.1 -16.5
v 3.2 0.1 -16.6
v 3.2 0.1 -16.7
v 3.2 0.2 -16.6
v 3.2 0.2 -16.7
v 3.2 0.6 -16.3
v 3.2 0.6 -16.4
v 3.2 0.6 -16.5
v 3.2 0.7 -16.3
v 3.2 0.7 -16.4
v 3.2 0.7 -16.5
v 3.2 0.9 -16.7
v 3.2 0.9 -16.8
v 3.2 1 -16.7
v 3.2 1 -16.8
v 3.3 0 -16.5
v 3.3 0 -16.6
v 3.3 0 -16.9
v 3.3 0 -17
v 3.3 0.1 -16.6
v 3.3 0.1 -16.9
v 3.3 0.1 -17
v 3.3 0.2 -16.4
v 3.3 0.2 -16.5
v 3.3 0.2 -16.6
v 3.3 0.2 -16.9
v 3.3 0.3 -16.4
v 3.3 0.3 -16.5
v 3.3 0.3 -16.6
v 3.3 0.3 -16.9
v 3.3 0.4 -16.6
v 3.3 0.4 -16.9
v 3.3 0.4 -17
v 3.3 0.5 -16.6
v 3.3 0.5 -16.9
v 3.3 0.5 -17
v 3.3 0.6 -16.5
v 3.3 0.6 -16.9
v 3.3 0.7 -16.5
v 3.3 0.7 -16.6
v 3.3 0.7 -16.9
v 3.3 0.7 -17
v 3.3 0.8 -16.6
v 3.3 0.8 -16.9
v 3.3 0.9 -16.6
v 3.3 0.9 -16.9
v 3.4 0 -16.6
v 3.4 0 -16.8
v 3.4 0 -16.9
v 3.4 0.1 -16.6
v 3.4 0.1 -16.8
v 3.4 0.2 -16.7
v 3.4 0.2 -16.9
v 3.4 0.3 -16.4
v 3.4 0.3 -16.5
v 3.4 0.3 -16.7
v 3.4 0.3 -16.9
v 3.4 0.4 -16.6
v 3.4 0.4 -16.8
v 3.4 0.5 -16.6
v 3.4 0.5 -16.8
v 3.4 0.6 -16.4
v 3.4 0.6 -16.5
v 3.4 0.6 -16.7
v 3.4 0.6 -16.9
v 3.4 0.7 -16.5
v 3.4 0.7 -16.6
v 3.4 0.7 -16.7
v 3.4 0.7 -16.9
v 3.4 0.7 -17
v 3.4 0.8 -16.5
v 3.4 0.8 -17
v 3.5 0.8 -16.4
v 3.5 0.8 -16.5
v 3.5 0.9 -16.4
v 3.5 0.9 -16.5
v 3.6 0.7 -16.4
v 3.6 0.7 -16.5
v 3.6 0.8 -16.4
v 3.6 0.8 -16.5
v 3.1 0.6 -16.3
v 3.1 0.7 -16.3
v 3.2 0.6 -16.3
v 3.2 0.7 -16.3
v 2.7 0.5 -16.4
v 2.7 0.6 -16.4
v 2.8 0.4 -16.4
v 2.8 0.5 -16.4
v 2.8 0.6 -16.4
v 2.9 0.7 -16.4
v 2.9 1 -16.4
v 3 0.7 -16.4
v 3 1 -16.4
v 3 1.1 -16.4
v 3.1 0.4 -16.4
v 3.1 0.5 -16.4
v 3.1 0.6 -16.4
v 3.1 0.7 -16.4
v 3.1 1 -16.4
v 3.1 1.1 -16.4
v 3.2 0.2 -16.4
v 3.2 0.3 -16.4
v 3.2 0.6 -16.4
v 3.2 0.7 -16.4
v 3.2 0.8 -16.4
v 3.2 0.9 -16.4
v 3.3 0.2 -16.4
v 3.3 0.3 -16.4
v 3.3 0.6 -16.4
v 3.4 0.3 -16.4
v 3.4 0.6 -16.4
v 3.5 0.7 -16.4
v 3.5 0.8 -16.4
v 3.5 0.9 -16.4
v 3.6 0.7 -16.4
v 3.6 0.8 -16.4
v 3 0 -16.5
v 3 0.1 -16.5
v 3 0.4 -16.5
v 3 0.6 -16.5
v 3 0.7 -16.5
v 3.1 0 -16.5
v 3.1 0.1 -16.5
v 3.1 0.2 -16.5
v 3.1 0.3 -16.5
v 3.1 0.4 -16.5
v 3.1 0.5 -16.5
v 3.1 0.6 -16.5
v 3.1 0.7 -16.5
v 3.1 0.8 -16.5
v 3.2 0 -16.5
v 3.2 0.2 -16.5
v 3.2 0.3 -16.5
v 3.2 0.6 -16.5
v 3.2 0.7 -16.5
v 3.2 0.8 -16.5
v 3.3 0 -16.5
v 3.3 0.2 -16.5
v 3.3 0.6 -16.5
v 3.3 0.7 -16.5
v 2.9 0 -16.6
v 2.9 0.2 -16.6
v 2.9 0.3 -16.6
v 2.9 0.6 -16.6
v 2.9 0.7 -16.6
v 3 0 -16.6
v 3 0.1 -16.6
v 3 0.2 -16.6
v 3 0.3 -16.6
v 3 0.4 -16.6
v 3 0.5 -16.6
v 3 0.6 -16.6
v 3 0.7 -16.6
v 3 0.8 -16.6
v 3 0.9 -16.6
v 3.1 0 -16.6
v 3.1 0.1 -16.6
v 3.1 0.2 -16.6
v 3.2 0 -16.6
v 3.2 0.2 -16.6
v 3.3 0 -16.6
v 3.3 0.1 -16.6
v 3.3 0.2 -16.6
v 3.3 0.3 -16.6
v 3.3 0.4 -16.6
v 3.3 0.5 -16.6
v 3.3 0.7 -16.6
v 3.3 0.8 -16.6
v 3.3 0.9 -16.6
v 3.4 0 -16.6
v 3.4 0.1 -16.6
v 3.4 0.4 -16.6
v 3.4 0.5 -16.6
v 3.4 0.7 -16.6
v 3.1 0.9 -16.7
v 3.1 1 -16.7
v 3.2 0.9 -16.7
v 3.2 1 -16.7
v 3 0.6 -16.8
v 3 0.7 -16.8
v 3.1 0.6 -16.8
v 3.1 0.7 -16.8
v 3.2 0.6 -16.8
v 3.2 0.7 -16.8
v 3.3 0.6 -16.8
v 3.3 0.7 -16.8
v 3 0 -16.9
v 3 0.1 -16.9
v 3 0.2 -16.9
v 3 0.3 -16.9
v 3 0.4 -16.9
v 3 0.5 -16.9
v 3 0.6 -16.9
v 3.1 0 -16.9
v 3.1 0.1 -16.9
v 3.1 0.4 -16.9
v 3.1 0.5 -16.9
v 3.1 0.6 -16.9
v 3.1 0.7 -16.9
v 3.2 0.2 -16.9
v 3.2 0.3 -16.9
v 3.2 0.6 -16.9
v 3.2 0.7 -16.9
v 3.3 0 -16.9
v 3.3 0.1 -16.9
v 3.3 0.2 -16.9
v 3.3 0.3 -16.9
v 3.3 0.4 -16.9
v 3.3 0.5 -16.9
v 3.3 0.6 -16.9
v 2.7 0.5 -16.5
v 2.7 0.6 -16.5
v 2.8 0.4 -16.5
v 2.8 0.5 -16.5
v 2.8 0.6 -16.5
v 2.9 0.8 -16.5
v 2.9 1 -16.5
v 3 0.4 -16.5
v 3 0.5 -16.5
v 3 0.6 -16.5
v 3 0.8 -16.5
v 3 1 -16.5
v 3 1.1 -16.5
v 3.1 0.8 -16.5
v 3.1 1 -16.5
v 3.1 1.1 -16.5
v 3.2 0.8 -16.5
v 3.2 0.9 -16.5
v 3.3 0.3 -16.5
v 3.3 0.6 -16.5
v 3.4 0.3 -16.5
v 3.4 0.6 -16.5
v 3.4 0.7 -16.5
v 3.4 0.8 -16.5
v 3.5 0.7 -16.5
v 3.5 0.8 -16.5
v 3.5 0.9 -16.5
v 3.6 0.7 -16.5
v 3.6 0.8 -16.5
v 3 0 -16.6
v 3 0.1 -16.6
v 3 0.2 -16.6
v 3 0.3 -16.6
v 3 0.4 -16.6
v 3 0.5 -16.6
v 3 0.6 -16.6
v 3.1 0 -16.6
v 3.1 0.1 -16.6
v 3.1 0.2 -16.6
v 3.1 0.3 -16.6
v 3.1 0.4 -16.6
v 3.1 0.5 -16.6
v 3.1 0.6 -16.6
v 3.1 0.7 -16.6
v 3.2 0.1 -16.6
v 3.2 0.2 -16.6
v 3.2 0.6 -16.6
v 3.2 0.7 -16.6
v 3.3 0.1 -16.6
v 3.3 0.2 -16.6
v 3.3 0.3 -16.6
v 3.3 0.4 -16.6
v 3.3 0.5 -16.6
v 3.3 0.6 -16.6
v 3 0.6 -16.7
v 3 0.7 -16.7
v 3.1 0 -16.7
v 3.1 0.2 -16.7
v 3.1 0.6 -16.7
v 3.1 0.7 -16.7
v 3.2 0 -16.7
v 3.2 0.1 -16.7
v 3.2 0.2 -16.7
v 3.2 0.6 -16.7
v 3.2 0.7 -16.7
v 3.3 0 -16.7
v 3.3 0.1 -16.7
v 3.3 0.6 -16.7
v 3.3 0.7 -16.7
v 3.1 0.9 -16.8
v 3.1 1 -16.8
v 3.2 0.9 -16.8
v 3.2 1 -16.8
v 2.9 0 -16.9
v 2.9 0.1 -16.9
v 2.9 0.4 -16.9
v 2.9 0.5 -16.9
v 2.9 0.7 -16.9
v 3 0 -16.9
v 3 0.1 -16.9
v 3 0.2 -16.9
v 3 0.3 -16.9
v 3 0.4 -16.9
v 3 0.5 -16.9
v 3 0.6 -16.9
v 3 0.7 -16.9
v 3 0.8 -16.9
v 3 0.9 -16.9
v 3.3 0 -16.9
v 3.3 0.1 -16.9
v 3.3 0.2 -16.9
v 3.3 0.3 -16.9
v 3.3 0.4 -16.9
v 3.3 0.5 -16.9
v 3.3 0.6 -16.9
v 3.3 0.7 -16.9
v 3.3 0.8 -16.9
v 3.3 0.9 -16.9
v 3.4 0 -16.9
v 3.4 0.2 -16.9
v 3.4 0.3 -16.9
v 3.4 0.6 -16.9
v 3.4 0.7 -16.9
v 2.9 0.7 -17
v 2.9 0.8 -17
v 3 0 -17
v 3 0.2 -17
v 3 0.3 -17
v 3 0.6 -17
v 3 0.7 -17
v 3.1 0 -17
v 3.1 0.1 -17
v 3.1 0.4 -17
v 3.1 0.5 -17
v 3.2 0.2 -17
v 3.2 0.3 -17
v 3.2 0.6 -17
v 3.2 0.7 -17
v 3.3 0 -17
v 3.3 0.1 -17
v 3.3 0.4 -17
v 3.3 0.5 -17
v 3.3 0.7 -17
v 3.4 0.7 -17
v 3.4 0.8 -17
v 3 0 -16.5
v 3.1 0 -16.5
v 3.2 0 -16.5
v 3.3 0 -16.5
v 2.9 0 -16.6
v 3 0 -16.6
v 3.1 0 -16.6
v 3.2 0 -16.6
v 3.3 0 -16.6
v 3.4 0 -16.6
v 2.9 0 -16.7
v 3 0 -16.7
v 3.1 0 -16.7
v 3.2 0 -16.7
v 3.3 0 -16.7
v 3.3 0 -16.8
v 3.4 0 -16.8
v 2.9 0 -16.9
v 3 0 -16.9
v 3.1 0 -16.9
v 3.3 0 -16.9
v 3.4 0 -16.9
v 3 0 -17
v 3.1 0 -17
v 3.3 0 -17
v 3.2 0.2 -16.4
v 3.3 0.2 -16.4
v 3.1 0.2 -16.5
v 3.2 0.2 -16.5
v 3.3 0.2 -16.5
v 3.1 0.2 -16.6
v 3.2 0.2 -16.6
v 3.3 0.3 -16.4
v 3.4 0.3 -16.4
v 3.3 0.3 -16.5
v 3.4 0.3 -16.5
v 2.8 0.4 -16.4
v 3.1 0.4 -16.4
v 2.8 0.4 -16.5
v 3 0.4 -16.5
v 3.1 0.4 -16.5
v 2.7 0.5 -16.4
v 2.8 0.5 -16.4
v 2.7 0.5 -16.5
v 2.8 0.5 -16.5
v 3.1 0.6 -16.3
v 3.2 0.6 -16.3
v 3.1 0.6 -16.4
v 3.2 0.6 -16.4
v 3.1 0.6 -16.5
v 3.2 0.6 -16.5
v 3 0.6 -16.6
v 3.1 0.6 -16.6
v 3.2 0.6 -16.6
v 3.3 0.6 -16.6
v 3 0.6 -16.7
v 3.1 0.6 -16.7
v 3.2 0.6 -16.7
v 3.3 0.6 -16.7
v 3 0.6 -16.8
v 3.1 0.6 -16.8
v 3.2 0.6 -16.8
v 3.3 0.6 -16.8
v 3 0.6 -16.9
v 3.1 0.6 -16.9
v 3.2 0.6 -16.9
v 3.3 0.6 -16.9
v 2.9 0.7 -16.4
v 3 0.7 -16.4
v 3.1 0.7 -16.4
v 3.2 0.7 -16.4
v 3.5 0.7 -16.4
v 3.6 0.7 -16.4
v 2.9 0.7 -16.5
v 3 0.7 -16.5
v 3.1 0.7 -16.5
v 3.2 0.7 -16.5
v 3.3 0.7 -16.5
v 3.4 0.7 -16.5
v 3.5 0.7 -16.5
v 3.6 0.7 -16.5
v 2.9 0.7 -16.6
v 3 0.7 -16.6
v 3.1 0.7 -16.6
v 3.2 0.7 -16.6
v 3.3 0.7 -16.6
v 3.4 0.7 -16.6
v 3 0.7 -16.7
v 3.1 0.7 -16.7
v 3.2 0.7 -16.7
v 3.3 0.7 -16.7
v 3 0.7 -16.8
v 3.1 0.7 -16.8
v 3.2 0.7 -16.8
v 3.3 0.7 -16.8
v 2.9 0.7 -16.9
v 3 0.7 -16.9
v 3.1 0.7 -16.9
v 3.2 0.7 -16.9
v 3.3 0.7 -16.9
v 3.4 0.7 -16.9
v 2.9 0.7 -17
v 3 0.7 -17
v 3.3 0.7 -17
v 3.4 0.7 -17
v 3.2 0.1 -16.6
v 3.3 0.1 -16.6
v 3.2 0.1 -16.7
v 3.3 0.1 -16.7
v 3.1 0.2 -16.6
v 3.2 0.2 -16.6
v 3.1 0.2 -16.7
v 3.2 0.2 -16.7
v 2.7 0.6 -16.4
v 2.8 0.6 -16.4
v 3.1 0.6 -16.4
v 3.2 0.6 -16.4
v 3.3 0.6 -16.4
v 3.4 0.6 -16.4
v 2.7 0.6 -16.5
v 2.8 0.6 -16.5
v 3 0.6 -16.5
v 3.1 0.6 -16.5
v 3.2 0.6 -16.5
v 3.3 0.6 -16.5
v 3.4 0.6 -16.5
v 3.1 0.7 -16.3
v 3.2 0.7 -16.3
v 3.1 0.7 -16.4
v 3.2 0.7 -16.4
v 3.1 0.7 -16.5
v 3.2 0.7 -16.5
v 3.5 0.8 -16.4
v 3.6 0.8 -16.4
v 2.9 0.8 -16.5
v 3 0.8 -16.5
v 3.1 0.8 -16.5
v 3.2 0.8 -16.5
v 3.4 0.8 -16.5
v 3.5 0.8 -16.5
v 3.6 0.8 -16.5
v 3 0.8 -16.6
v 3.3 0.8 -16.6
v 3 0.8 -16.9
v 3.3 0.8 -16.9
v 2.9 0.8 -17
v 3.4 0.8 -17
v 3.2 0.9 -16.4
v 3.5 0.9 -16.4
v 3.2 0.9 -16.5
v 3.5 0.9 -16.5
v 3 0.9 -16.6
v 3.3 0.9 -16.6
v 3.1 0.9 -16.7
v 3.2 0.9 -16.7
v 3.1 0.9 -16.8
v 3.2 0.9 -16.8
v 3 0.9 -16.9
v 3.3 0.9 -16.9
v 2.9 1 -16.4
v 3 1 -16.4
v 2.9 1 -16.5
v 3 1 -16.5
v 3.1 1 -16.7
v 3.2 1 -16.7
v 3.1 1 -16.8
v 3.2 1 -16.8
v 3 1.1 -16.4
v 3.1 1.1 -16.4
v 3 1.1 -16.5
v 3.1 1.1 -16.5

# faces
f 3/5/1 2/5/1 1/5/1
f 4/5/1 2/5/1 3/5/1
f 7/5/1 6/5/1 5/5/1
f 8/5/1 6/5/1 7/5/1
f 12/2/1 10/2/1 9/2/1
f 12/3/1 11/3/1 10/3/1
f 13/3/1 11/3/1 12/3/1
f 14/2/1 12/2/1 9/2/1
f 14/2/1 13/2/1 12/2/1
f 15/2/1 13/2/1 14/2/1
f 16/3/1 15/3/1 14/3/1
f 17/2/1 13/2/1 15/2/1
f 17/3/1 15/3/1 16/3/1
f 18/2/1 17/2/1 16/2/1
f 19/2/1 13/2/1 17/2/1
f 19/2/1 17/2/1 18/2/1
f 20/2/1 18/2/1 16/2/1
f 20/3/1 19/3/1 18/3/1
f 21/3/1 19/3/1 20/3/1
f 22/2/1 20/2/1 16/2/1
f 22/2/1 21/2/1 20/2/1
f 23/2/1 21/2/1 22/2/1
f 26/3/1 23/3/1 22/3/1
f 27/2/1 21/2/1 23/2/1
f 27/3/1 23/3/1 26/3/1
f 28/2/1 21/2/1 27/2/1
f 30/1/1 28/1/1 27/1/1
f 30/1/1 29/1/1 28/1/1
f 30/1/1 26/1/1 25/1/1
f 30/5/1 25/5/1 24/5/1
f 30/1/1 27/1/1 26/1/1
f 31/1/1 29/1/1 30/1/1
f 32/5/1 30/5/1 24/5/1
f 33/5/1 30/5/1 32/5/1
f 38/3/1 35/3/1 34/3/1
f 39/3/1 35/3/1 38/3/1
f 40/2/1 37/2/1 36/2/1
f 41/2/1 39/2/1 38/2/1
f 42/2/1 37/2/1 40/2/1
f 43/2/1 37/2/1 42/2/1
f 44/2/1 41/2/1 38/2/1
f 45/3/1 43/3/1 42/3/1
f 46/3/1 43/3/1 45/3/1
f 47/2/1 44/2/1 38/2/1
f 48/2/1 44/2/1 47/2/1
f 49/2/1 46/2/1 45/2/1
f 50/3/1 48/3/1 47/3/1
f 51/3/1 48/3/1 50/3/1
f 52/2/1 46/2/1 49/2/1
f 53/2/1 51/2/1 50/2/1
f 54/2/1 51/2/1 53/2/1
f 55/2/1 46/2/1 52/2/1
f 56/2/1 46/2/1 55/2/1
f 57/3/1 54/3/1 53/3/1
f 58/3/1 54/3/1 57/3/1
f 59/3/1 56/3/1 55/3/1
f 60/3/1 56/3/1 59/3/1
f 63/1/1 62/1/1 61/1/1
f 64/1/1 62/1/1 63/1/1
f 67/5/1 66/5/1 65/5/1
f 68/5/1 66/5/1 67/5/1
f 71/6/1 70/6/1 69/6/1
f 72/6/1 70/6/1 71/6/1
f 73/6/1 70/6/1 72/6/1
f 77/4/1 75/4/1 74/4/1
f 77/4/1 76/4/1 75/4/1
f 78/4/1 76/4/1 77/4/1
f 79/4/1 76/4/1 78/4/1
f 82/1/1 81/1/1 80/1/1
f 83/1/1 81/1/1 82/1/1
f 87/2/1 85/2/1 84/2/1
f 88/2/1 85/2/1 87/2/1
f 89/5/1 87/5/1 86/5/1
f 90/5/1 87/5/1 89/5/1
f 91/4/1 90/4/1 89/4/1
f 92/4/1 90/4/1 91/4/1
f 99/2/1 94/2/1 93/2/1
f 100/2/1 94/2/1 99/2/1
f 101/2/1 96/2/1 95/2/1
f 102/2/1 96/2/1 101/2/1
f 103/4/1 98/4/1 97/4/1
f 104/4/1 98/4/1 103/4/1
f 105/5/1 104/5/1 103/5/1
f 106/5/1 104/5/1 105/5/1
f 111/3/1 108/3/1 107/3/1
f 112/2/1 109/2/1 108/2/1
f 112/3/1 108/3/1 111/3/1
f 113/2/1 109/2/1 112/2/1
f 114/2/1 111/2/1 110/2/1
f 114/2/1 112/2/1 111/2/1
f 114/2/1 113/2/1 112/2/1
f 115/2/1 113/2/1 114/2/1
f 116/2/1 113/2/1 115/2/1
f 117/2/1 115/2/1 114/2/1
f 118/3/1 116/3/1 115/3/1
f 118/2/1 115/2/1 117/2/1
f 119/3/1 116/3/1 118/3/1
f 120/2/1 118/2/1 117/2/1
f 120/2/1 119/2/1 118/2/1
f 121/2/1 119/2/1 120/2/1
f 122/2/1 119/2/1 121/2/1
f 123/3/1 121/3/1 120/3/1
f 124/2/1 122/2/1 121/2/1
f 124/3/1 121/3/1 123/3/1
f 125/2/1 122/2/1 124/2/1
f 126/2/1 124/2/1 123/2/1
f 126/2/1 125/2/1 124/2/1
f 127/2/1 125/2/1 126/2/1
f 128/2/1 125/2/1 127/2/1
f 129/2/1 125/2/1 128/2/1
f 130/3/1 128/3/1 127/3/1
f 131/3/1 128/3/1 130/3/1
f 132/2/2 133/2/2 135/2/2
f 133/3/2 134/3/2 136/3/2
f 135/2/2 133/2/2 136/2/2
f 136/3/2 134/3/2 137/3/2
f 135/2/2 136/2/2 138/2/2
f 136/2/2 137/2/2 138/2/2
f 138/2/2 137/2/2 139/2/2
f 139/2/2 137/2/2 140/2/2
f 138/3/2 139/3/2 141/3/2
f 139/2/2 140/2/2 142/2/2
f 141/3/2 139/3/2 142/3/2
f 142/2/2 140/2/2 143/2/2
f 141/2/2 142/2/2 144/2/2
f 142/2/2 143/2/2 144/2/2
f 144/2/2 143/2/2 145/2/2
f 145/2/2 143/2/2 146/2/2
f 144/2/2 145/2/2 147/2/2
f 145/3/2 146/3/2 148/3/2
f 147/2/2 145/2/2 148/2/2
f 148/3/2 146/3/2 149/3/2
f 147/2/2 148/2/2 150/2/2
f 148/2/2 149/2/2 150/2/2
f 150/2/2 149/2/2 151/2/2
f 151/2/2 149/2/2 152/2/2
f 152/2/2 149/2/2 153/2/2
f 151/2/2 152/2/2 154/2/2
f 154/2/2 152/2/2 155/2/2
f 156/3/2 157/3/2 158/3/2
f 158/3/2 157/3/2 159/3/2
f 158/2/2 159/2/2 160/2/2
f 160/2/2 159/2/2 161/2/2
f 162/5/2 163/5/2 164/5/2
f 164/5/2 163/5/2 165/5/2
f 164/4/2 165/4/2 166/4/2
f 166/4/2 165/4/2 167/4/2
f 168/2/2 169/2/2 174/2/2
f 174/2/2 169/2/2 175/2/2
f 170/2/2 171/2/2 176/2/2
f 176/2/2 171/2/2 177/2/2
f 172/4/2 173/4/2 178/4/2
f 172/4/2 178/4/2 179/4/2
f 179/4/2 178/4/2 180/4/2
f 179/5/2 180/5/2 181/5/2
f 181/5/2 180/5/2 182/5/2
f 183/6/2 184/6/2 185/6/2
f 185/6/2 184/6/2 186/6/2
f 187/4/2 188/4/2 190/4/2
f 188/4/2 189/4/2 190/4/2
f 190/4/2 189/4/2 191/4/2
f 191/4/2 189/4/2 192/4/2
f 193/1/2 194/1/2 195/1/2
f 195/1/2 194/1/2 196/1/2
f 197/2/2 198/2/2 201/2/2
f 199/3/2 200/3/2 202/3/2
f 202/3/2 200/3/2 203/3/2
f 197/2/2 201/2/2 205/2/2
f 205/2/2 201/2/2 206/2/2
f 202/2/2 203/2/2 207/2/2
f 204/5/2 205/5/2 208/5/2
f 205/3/2 206/3/2 209/3/2
f 208/5/2 205/5/2 209/5/2
f 209/3/2 206/3/2 210/3/2
f 207/2/2 203/2/2 211/2/2
f 209/2/2 210/2/2 212/2/2
f 211/2/2 203/2/2 213/2/2
f 213/2/2 203/2/2 214/2/2
f 209/2/2 212/2/2 215/2/2
f 213/3/2 214/3/2 216/3/2
f 216/3/2 214/3/2 217/3/2
f 209/2/2 215/2/2 218/2/2
f 216/2/2 217/2/2 219/2/2
f 218/2/2 215/2/2 220/2/2
f 220/2/2 215/2/2 221/2/2
f 219/2/2 217/2/2 222/2/2
f 222/2/2 217/2/2 223/2/2
f 224/1/2 225/1/2 226/1/2
f 226/1/2 225/1/2 227/1/2
f 228/3/2 229/3/2 231/3/2
f 229/2/2 230/2/2 232/2/2
f 231/3/2 229/3/2 232/3/2
f 231/2/2 232/2/2 233/2/2
f 232/2/2 230/2/2 234/2/2
f 233/2/2 232/2/2 234/2/2
f 231/2/2 233/2/2 237/2/2
f 233/3/2 234/3/2 237/3/2
f 237/3/2 234/3/2 238/3/2
f 231/2/2 237/2/2 239/2/2
f 237/2/2 238/2/2 239/2/2
f 239/2/2 238/2/2 240/2/2
f 239/3/2 240/3/2 241/3/2
f 240/2/2 238/2/2 242/2/2
f 241/3/2 240/3/2 242/3/2
f 235/5/2 236/5/2 243/5/2
f 243/5/2 236/5/2 244/5/2
f 241/2/2 242/2/2 245/2/2
f 242/2/2 238/2/2 246/2/2
f 245/2/2 242/2/2 246/2/2
f 241/2/2 245/2/2 248/2/2
f 245/3/2 246/3/2 249/3/2
f 248/2/2 245/2/2 249/2/2
f 249/3/2 246/3/2 250/3/2
f 247/1/2 248/1/2 252/1/2
f 250/1/2 251/1/2 252/1/2
f 249/1/2 250/1/2 252/1/2
f 248/1/2 249/1/2 252/1/2
f 252/1/2 251/1/2 253/1/2
f 254/5/2 255/5/2 256/5/2
f 256/5/2 255/5/2 257/5/2
f 258/5/2 259/5/2 260/5/2
f 260/5/2 259/5/2 261/5/2
f 264/4/3 263/4/3 262/4/3
f 265/4/3 263/4/3 264/4/3
f 269/5/3 267/5/3 266/5/3
f 270/5/3 267/5/3 269/5/3
f 273/5/3 272/5/3 271/5/3
f 274/5/3 272/5/3 273/5/3
f 276/5/3 269/5/3 268/5/3
f 277/4/3 270/4/3 269/4/3
f 277/5/3 269/5/3 276/5/3
f 278/4/3 270/4/3 277/4/3
f 279/4/3 274/4/3 273/4/3
f 280/5/3 275/5/3 274/5/3
f 280/4/3 274/4/3 279/4/3
f 281/5/3 275/5/3 280/5/3
f 288/5/3 283/5/3 282/5/3
f 289/4/3 284/4/3 283/4/3
f 289/5/3 283/5/3 288/5/3
f 290/4/3 284/4/3 289/4/3
f 291/5/3 290/5/3 289/5/3
f 292/5/3 290/5/3 291/5/3
f 293/4/3 286/4/3 285/4/3
f 294/5/3 287/5/3 286/5/3
f 294/4/3 286/4/3 293/4/3
f 295/5/3 287/5/3 294/5/3
f 296/5/3 294/5/3 293/5/3
f 297/5/3 294/5/3 296/5/3
f 303/3/3 299/3/3 298/3/3
f 304/2/3 300/2/3 299/2/3
f 304/3/3 299/3/3 303/3/3
f 305/2/3 300/2/3 304/2/3
f 306/2/3 300/2/3 305/2/3
f 307/2/3 300/2/3 306/2/3
f 309/3/3 302/3/3 301/3/3
f 310/3/3 302/3/3 309/3/3
f 313/3/3 306/3/3 305/3/3
f 314/2/3 308/2/3 307/2/3
f 314/2/3 309/2/3 308/2/3
f 314/3/3 306/3/3 313/3/3
f 314/2/3 307/2/3 306/2/3
f 315/2/3 309/2/3 314/2/3
f 316/1/3 311/1/3 310/1/3
f 317/1/3 311/1/3 316/1/3
f 318/2/3 313/2/3 312/2/3
f 319/2/3 313/2/3 318/2/3
f 320/2/3 316/2/3 315/2/3
f 321/2/3 316/2/3 320/2/3
f 327/2/3 323/2/3 322/2/3
f 328/2/3 323/2/3 327/2/3
f 329/3/3 324/3/3 323/3/3
f 329/2/3 323/2/3 328/2/3
f 330/2/3 325/2/3 324/2/3
f 330/3/3 324/3/3 329/3/3
f 331/2/3 325/2/3 330/2/3
f 332/2/3 325/2/3 331/2/3
f 333/3/3 326/3/3 325/3/3
f 333/2/3 325/2/3 332/2/3
f 334/3/3 326/3/3 333/3/3
f 340/6/3 338/6/3 337/6/3
f 340/6/3 339/6/3 338/6/3
f 341/6/3 339/6/3 340/6/3
f 349/1/3 336/1/3 335/1/3
f 350/1/3 336/1/3 349/1/3
f 351/3/3 343/3/3 342/3/3
f 352/2/3 344/2/3 343/2/3
f 352/3/3 343/3/3 351/3/3
f 352/2/3 345/2/3 344/2/3
f 352/2/3 346/2/3 345/2/3
f 353/3/3 347/3/3 346/3/3
f 353/2/3 346/2/3 352/2/3
f 354/2/3 348/2/3 347/2/3
f 354/3/3 347/3/3 353/3/3
f 355/2/3 348/2/3 354/2/3
f 358/1/3 357/1/3 356/1/3
f 359/1/3 357/1/3 358/1/3
f 362/2/3 361/2/3 360/2/3
f 363/2/3 361/2/3 362/2/3
f 366/2/3 365/2/3 364/2/3
f 367/2/3 365/2/3 366/2/3
f 375/2/3 369/2/3 368/2/3
f 375/2/3 370/2/3 369/2/3
f 376/2/3 370/2/3 375/2/3
f 377/2/3 374/2/3 373/2/3
f 377/2/3 373/2/3 372/2/3
f 377/2/3 372/2/3 371/2/3
f 378/2/3 374/2/3 377/2/3
f 379/2/3 374/2/3 378/2/3
f 381/2/3 370/2/3 376/2/3
f 381/3/3 371/3/3 370/3/3
f 382/2/3 377/2/3 371/2/3
f 382/3/3 371/3/3 381/3/3
f 383/3/3 380/3/3 379/3/3
f 383/2/3 379/2/3 378/2/3
f 384/3/3 380/3/3 383/3/3
f 385/3/3 376/3/3 375/3/3
f 386/2/3 382/2/3 381/2/3
f 386/3/3 376/3/3 385/3/3
f 386/2/3 381/2/3 376/2/3
f 387/2/3 382/2/3 386/2/3
f 388/2/3 377/2/3 382/2/3
f 388/2/3 382/2/3 387/2/3
f 389/3/3 378/3/3 377/3/3
f 389/2/3 377/2/3 388/2/3
f 390/2/3 383/2/3 378/2/3
f 390/3/3 378/3/3 389/3/3
f 391/2/3 383/2/3 390/2/3
f 392/5/4 393/5/4 395/5/4
f 395/5/4 393/5/4 396/5/4
f 394/5/4 395/5/4 399/5/4
f 395/4/4 396/4/4 400/4/4
f 399/5/4 395/5/4 400/5/4
f 400/4/4 396/4/4 401/4/4
f 397/5/4 398/5/4 402/5/4
f 402/5/4 398/5/4 403/5/4
f 402/4/4 403/4/4 405/4/4
f 403/5/4 404/5/4 406/5/4
f 405/4/4 403/4/4 406/4/4
f 406/5/4 404/5/4 407/5/4
f 410/5/4 411/5/4 412/5/4
f 412/5/4 411/5/4 413/5/4
f 408/5/4 409/5/4 415/5/4
f 414/4/4 415/4/4 416/4/4
f 415/5/4 409/5/4 417/5/4
f 416/4/4 415/4/4 417/4/4
f 417/5/4 409/5/4 418/5/4
f 416/5/4 417/5/4 419/5/4
f 419/5/4 417/5/4 420/5/4
f 421/3/4 422/3/4 428/3/4
f 422/2/4 423/2/4 429/2/4
f 428/3/4 422/3/4 429/3/4
f 423/2/4 424/2/4 429/2/4
f 424/2/4 425/2/4 429/2/4
f 429/2/4 425/2/4 430/2/4
f 430/2/4 425/2/4 431/2/4
f 425/3/4 426/3/4 432/3/4
f 431/2/4 425/2/4 432/2/4
f 426/2/4 427/2/4 433/2/4
f 432/3/4 426/3/4 433/3/4
f 433/2/4 427/2/4 434/2/4
f 430/3/4 431/3/4 437/3/4
f 431/2/4 432/2/4 438/2/4
f 432/2/4 433/2/4 438/2/4
f 434/2/4 435/2/4 438/2/4
f 433/2/4 434/2/4 438/2/4
f 438/2/4 435/2/4 439/2/4
f 436/2/4 437/2/4 440/2/4
f 437/3/4 431/3/4 441/3/4
f 440/2/4 437/2/4 441/2/4
f 431/2/4 438/2/4 442/2/4
f 441/3/4 431/3/4 442/3/4
f 442/2/4 438/2/4 443/2/4
f 443/2/4 438/2/4 444/2/4
f 444/2/4 438/2/4 445/2/4
f 446/2/4 447/2/4 450/2/4
f 450/2/4 447/2/4 451/2/4
f 448/6/4 449/6/4 452/6/4
f 452/6/4 449/6/4 453/6/4
f 453/6/4 449/6/4 454/6/4
f 452/2/4 453/2/4 457/2/4
f 457/2/4 453/2/4 458/2/4
f 455/2/4 456/2/4 459/2/4
f 459/2/4 456/2/4 460/2/4
f 461/1/4 462/1/4 463/1/4
f 463/1/4 462/1/4 464/1/4
f 465/3/4 466/3/4 470/3/4
f 466/2/4 467/2/4 471/2/4
f 470/3/4 466/3/4 471/3/4
f 471/2/4 467/2/4 472/2/4
f 472/2/4 467/2/4 473/2/4
f 467/3/4 468/3/4 474/3/4
f 473/2/4 467/2/4 474/2/4
f 468/2/4 469/2/4 475/2/4
f 474/3/4 468/3/4 475/3/4
f 475/2/4 469/2/4 476/2/4
f 476/2/4 469/2/4 477/2/4
f 478/1/4 479/1/4 488/1/4
f 488/1/4 479/1/4 489/1/4
f 480/2/4 481/2/4 490/2/4
f 481/2/4 482/2/4 490/2/4
f 482/3/4 483/3/4 491/3/4
f 490/2/4 482/2/4 491/2/4
f 483/2/4 484/2/4 492/2/4
f 491/3/4 483/3/4 492/3/4
f 484/2/4 485/2/4 492/2/4
f 485/2/4 486/2/4 492/2/4
f 486/3/4 487/3/4 493/3/4
f 492/2/4 486/2/4 493/2/4
f 493/3/4 487/3/4 494/3/4
f 495/1/4 496/1/4 501/1/4
f 497/2/4 498/2/4 502/2/4
f 502/2/4 498/2/4 503/2/4
f 499/2/4 500/2/4 504/2/4
f 504/2/4 500/2/4 505/2/4
f 503/2/4 498/2/4 506/2/4
f 498/3/4 499/3/4 506/3/4
f 499/2/4 504/2/4 507/2/4
f 506/3/4 499/3/4 507/3/4
f 505/2/4 500/2/4 508/2/4
f 500/3/4 501/3/4 508/3/4
f 501/1/4 496/1/4 509/1/4
f 508/3/4 501/3/4 509/3/4
f 502/3/4 503/3/4 510/3/4
f 506/2/4 507/2/4 511/2/4
f 510/3/4 503/3/4 511/3/4
f 503/2/4 506/2/4 511/2/4
f 507/2/4 504/2/4 512/2/4
f 511/2/4 507/2/4 512/2/4
f 504/3/4 505/3/4 512/3/4
f 508/2/4 509/2/4 513/2/4
f 512/3/4 505/3/4 513/3/4
f 505/2/4 508/2/4 513/2/4
f 509/1/4 496/1/4 514/1/4
f 513/2/4 509/2/4 514/2/4
f 514/1/4 496/1/4 515/1/4
f 515/1/4 496/1/4 516/1/4
f 522/3/5 518/3/5 517/3/5
f 523/3/5 518/3/5 522/3/5
f 524/2/5 520/2/5 519/2/5
f 525/2/5 520/2/5 524/2/5
f 527/2/5 522/2/5 521/2/5
f 528/2/5 522/2/5 527/2/5
f 529/6/5 524/6/5 523/6/5
f 530/2/5 525/2/5 524/2/5
f 530/6/5 524/6/5 529/6/5
f 531/3/5 526/3/5 525/3/5
f 531/2/5 525/2/5 530/2/5
f 532/3/5 526/3/5 531/3/5
f 533/3/5 526/3/5 532/3/5
f 534/3/5 528/3/5 527/3/5
f 535/3/5 528/3/5 534/3/5
f 537/2/5 533/2/5 532/2/5
f 538/2/5 533/2/5 537/2/5
f 539/2/5 536/2/5 535/2/5
f 540/3/5 537/3/5 536/3/5
f 540/2/5 536/2/5 539/2/5
f 541/3/5 537/3/5 540/3/5
f 545/5/5 543/5/5 542/5/5
f 546/5/5 543/5/5 545/5/5
f 547/3/5 545/3/5 544/3/5
f 548/3/5 545/3/5 547/3/5
f 551/5/5 550/5/5 549/5/5
f 552/5/5 550/5/5 551/5/5
f 555/5/5 554/5/5 553/5/5
f 556/5/5 554/5/5 555/5/5
f 557/5/5 554/5/5 556/5/5
f 560/5/5 559/5/5 558/5/5
f 561/5/5 559/5/5 560/5/5
f 564/4/5 563/4/5 562/4/5
f 565/4/5 563/4/5 564/4/5
f 566/4/5 565/4/5 564/4/5
f 567/4/5 565/4/5 566/4/5
f 572/2/5 569/2/5 568/2/5
f 573/2/5 569/2/5 572/2/5
f 574/2/5 571/2/5 570/2/5
f 575/2/5 571/2/5 574/2/5
f 580/2/5 577/2/5 576/2/5
f 581/2/5 577/2/5 580/2/5
f 582/2/5 579/2/5 578/2/5
f 583/2/5 579/2/5 582/2/5
f 590/5/5 585/5/5 584/5/5
f 591/4/5 586/4/5 585/4/5
f 591/5/5 585/5/5 590/5/5
f 592/4/5 586/4/5 591/4/5
f 593/4/5 588/4/5 587/4/5
f 594/4/5 588/4/5 593/4/5
f 595/4/5 588/4/5 594/4/5
f 596/5/5 589/5/5 588/5/5
f 596/4/5 588/4/5 595/4/5
f 597/5/5 589/5/5 596/5/5
f 598/1/5 591/1/5 590/1/5
f 599/1/5 591/1/5 598/1/5
f 602/1/5 595/1/5 594/1/5
f 603/1/5 595/1/5 602/1/5
f 605/1/5 601/1/5 600/1/5
f 606/1/5 601/1/5 605/1/5
f 608/1/5 605/1/5 604/1/5
f 608/1/5 607/1/5 606/1/5
f 608/1/5 606/1/5 605/1/5
f 609/1/5 607/1/5 608/1/5
f 610/1/5 607/1/5 609/1/5
f 611/1/5 607/1/5 610/1/5
f 614/1/5 610/1/5 609/1/5
f 615/1/5 610/1/5 614/1/5
f 618/1/5 613/1/5 612/1/5
f 619/1/5 613/1/5 618/1/5
f 620/1/5 617/1/5 616/1/5
f 621/1/5 617/1/5 620/1/5
f 622/2/6 623/2/6 624/2/6
f 624/2/6 623/2/6 625/2/6
f 626/6/6 627/6/6 628/6/6
f 628/6/6 627/6/6 629/6/6
f 630/5/6 631/5/6 636/5/6
f 631/4/6 632/4/6 637/4/6
f 636/5/6 631/5/6 637/5/6
f 637/4/6 632/4/6 638/4/6
f 638/4/6 632/4/6 639/4/6
f 633/4/6 634/4/6 640/4/6
f 634/5/6 635/5/6 641/5/6
f 640/4/6 634/4/6 641/4/6
f 641/5/6 635/5/6 642/5/6
f 643/4/6 644/4/6 645/4/6
f 645/4/6 644/4/6 646/4/6
f 645/4/6 646/4/6 647/4/6
f 647/4/6 646/4/6 648/4/6
f 649/5/6 650/5/6 656/5/6
f 656/5/6 650/5/6 657/5/6
f 654/1/6 655/1/6 658/1/6
f 651/1/6 652/1/6 658/1/6
f 652/1/6 653/1/6 658/1/6
f 653/1/6 654/1/6 658/1/6
f 658/1/6 655/1/6 659/1/6
f 651/1/6 658/1/6 660/1/6
f 659/1/6 655/1/6 661/1/6
f 651/1/6 660/1/6 662/1/6
f 660/1/6 661/1/6 662/1/6
f 661/1/6 655/1/6 663/1/6
f 662/1/6 661/1/6 663/1/6
f 664/5/6 665/5/6 666/5/6
f 666/5/6 665/5/6 667/5/6
f 668/1/6 669/1/6 670/1/6
f 670/1/6 669/1/6 671/1/6
f 668/1/6 670/1/6 672/1/6
f 671/1/6 669/1/6 673/1/6
f 668/1/6 672/1/6 674/1/6
f 672/1/6 673/1/6 674/1/6
f 673/1/6 669/1/6 675/1/6
f 674/1/6 673/1/6 675/1/6
f 676/5/6 677/5/6 678/5/6
f 678/5/6 677/5/6 679/5/6
f 680/1/6 681/1/6 682/1/6
f 682/1/6 681/1/6 683/1/6
f 684/5/6 685/5/6 686/5/6
f 686/5/6 685/5/6 687/5/6
