# MagicaVoxel @ Ephtracy

# group
o props_flagwhite

# material
mtllib overworld-0-props_flagwhite.mtl
usemtl palette

# normals
vn -1 0 0
vn 1 0 0
vn 0 0 1
vn 0 0 -1
vn 0 -1 0
vn 0 1 0

# texcoords
vt 0.00195313 0.5
vt 0.310547 0.5
vt 0.962891 0.5

# verts
v 3.4 0 -13
v 3.4 0 -13.1
v 3.4 0.6 -13
v 3.4 0.6 -13.1
v 3.5 0 -13
v 3.5 0 -13.1
v 3.5 0.3 -13
v 3.5 0.3 -13.1
v 3.9 0.3 -13
v 3.9 0.3 -13.1
v 3.9 0.6 -13
v 3.9 0.6 -13.1
v 3.4 0 -13
v 3.4 0.6 -13
v 3.5 0 -13
v 3.5 0.3 -13
v 3.5 0.6 -13
v 3.6 0.3 -13
v 3.6 0.6 -13
v 3.9 0.3 -13
v 3.9 0.6 -13
v 3.4 0 -13.1
v 3.4 0.6 -13.1
v 3.5 0 -13.1
v 3.5 0.3 -13.1
v 3.5 0.6 -13.1
v 3.6 0.3 -13.1
v 3.6 0.6 -13.1
v 3.9 0.3 -13.1
v 3.9 0.6 -13.1
v 3.4 0 -13
v 3.5 0 -13
v 3.4 0 -13.1
v 3.5 0 -13.1
v 3.5 0.3 -13
v 3.6 0.3 -13
v 3.9 0.3 -13
v 3.5 0.3 -13.1
v 3.6 0.3 -13.1
v 3.9 0.3 -13.1
v 3.4 0.6 -13
v 3.5 0.6 -13
v 3.6 0.6 -13
v 3.9 0.6 -13
v 3.4 0.6 -13.1
v 3.5 0.6 -13.1
v 3.6 0.6 -13.1
v 3.9 0.6 -13.1

# faces
f 3/2/1 2/2/1 1/2/1
f 4/2/1 2/2/1 3/2/1
f 5/2/2 6/2/2 7/2/2
f 7/2/2 6/2/2 8/2/2
f 9/1/2 10/1/2 11/1/2
f 11/1/2 10/1/2 12/1/2
f 15/2/3 14/2/3 13/2/3
f 16/2/3 14/2/3 15/2/3
f 17/2/3 14/2/3 16/2/3
f 18/3/3 17/3/3 16/3/3
f 19/3/3 17/3/3 18/3/3
f 20/1/3 19/1/3 18/1/3
f 21/1/3 19/1/3 20/1/3
f 22/2/4 23/2/4 24/2/4
f 24/2/4 23/2/4 25/2/4
f 25/2/4 23/2/4 26/2/4
f 25/3/4 26/3/4 27/3/4
f 27/3/4 26/3/4 28/3/4
f 27/1/4 28/1/4 29/1/4
f 29/1/4 28/1/4 30/1/4
f 33/2/5 32/2/5 31/2/5
f 34/2/5 32/2/5 33/2/5
f 38/3/5 36/3/5 35/3/5
f 39/1/5 37/1/5 36/1/5
f 39/3/5 36/3/5 38/3/5
f 40/1/5 37/1/5 39/1/5
f 41/2/6 42/2/6 45/2/6
f 42/3/6 43/3/6 46/3/6
f 45/2/6 42/2/6 46/2/6
f 43/1/6 44/1/6 47/1/6
f 46/3/6 43/3/6 47/3/6
f 47/1/6 44/1/6 48/1/6
