# MagicaVoxel @ Ephtracy

# group
o props_flagpurple

# material
mtllib overworld-2-props_flagpurple.mtl
usemtl palette

# normals
vn -1 0 0
vn 1 0 0
vn 0 0 1
vn 0 0 -1
vn 0 -1 0
vn 0 1 0

# texcoords
vt 0.310547 0.5
vt 0.853516 0.5
vt 0.857422 0.5

# verts
v 1.6 0 -13
v 1.6 0 -13.1
v 1.6 0.6 -13
v 1.6 0.6 -13.1
v 1.7 0 -13
v 1.7 0 -13.1
v 1.7 0.3 -13
v 1.7 0.3 -13.1
v 2.1 0.3 -13
v 2.1 0.3 -13.1
v 2.1 0.6 -13
v 2.1 0.6 -13.1
v 1.6 0 -13
v 1.6 0.6 -13
v 1.7 0 -13
v 1.7 0.3 -13
v 1.7 0.6 -13
v 1.8 0.3 -13
v 1.8 0.6 -13
v 2.1 0.3 -13
v 2.1 0.6 -13
v 1.6 0 -13.1
v 1.6 0.6 -13.1
v 1.7 0 -13.1
v 1.7 0.3 -13.1
v 1.7 0.6 -13.1
v 1.8 0.3 -13.1
v 1.8 0.6 -13.1
v 2.1 0.3 -13.1
v 2.1 0.6 -13.1
v 1.6 0 -13
v 1.7 0 -13
v 1.6 0 -13.1
v 1.7 0 -13.1
v 1.7 0.3 -13
v 1.8 0.3 -13
v 2.1 0.3 -13
v 1.7 0.3 -13.1
v 1.8 0.3 -13.1
v 2.1 0.3 -13.1
v 1.6 0.6 -13
v 1.7 0.6 -13
v 1.8 0.6 -13
v 2.1 0.6 -13
v 1.6 0.6 -13.1
v 1.7 0.6 -13.1
v 1.8 0.6 -13.1
v 2.1 0.6 -13.1

# faces
f 3/1/1 2/1/1 1/1/1
f 4/1/1 2/1/1 3/1/1
f 5/1/2 6/1/2 7/1/2
f 7/1/2 6/1/2 8/1/2
f 9/2/2 10/2/2 11/2/2
f 11/2/2 10/2/2 12/2/2
f 15/1/3 14/1/3 13/1/3
f 16/1/3 14/1/3 15/1/3
f 17/1/3 14/1/3 16/1/3
f 18/3/3 17/3/3 16/3/3
f 19/3/3 17/3/3 18/3/3
f 20/2/3 19/2/3 18/2/3
f 21/2/3 19/2/3 20/2/3
f 22/1/4 23/1/4 24/1/4
f 24/1/4 23/1/4 25/1/4
f 25/1/4 23/1/4 26/1/4
f 25/3/4 26/3/4 27/3/4
f 27/3/4 26/3/4 28/3/4
f 27/2/4 28/2/4 29/2/4
f 29/2/4 28/2/4 30/2/4
f 33/1/5 32/1/5 31/1/5
f 34/1/5 32/1/5 33/1/5
f 38/3/5 36/3/5 35/3/5
f 39/2/5 37/2/5 36/2/5
f 39/3/5 36/3/5 38/3/5
f 40/2/5 37/2/5 39/2/5
f 41/1/6 42/1/6 45/1/6
f 42/3/6 43/3/6 46/3/6
f 45/1/6 42/1/6 46/1/6
f 43/2/6 44/2/6 47/2/6
f 46/3/6 43/3/6 47/3/6
f 47/2/6 44/2/6 48/2/6
