# MagicaVoxel @ Ephtracy

# group
o props_whale

# material
mtllib overworld-16-props_whale.mtl
usemtl palette

# normals
vn -1 0 0
vn 1 0 0
vn 0 0 1
vn 0 0 -1
vn 0 -1 0
vn 0 1 0

# texcoords
vt 0.0410156 0.5
vt 0.978516 0.5
vt 0.982422 0.5
vt 0.994141 0.5

# verts
v 8.7 0 -16.6
v 8.7 0 -16.8
v 8.7 0.1 -16.5
v 8.7 0.1 -16.6
v 8.7 0.1 -16.8
v 8.7 0.1 -16.9
v 8.7 0.2 -16.6
v 8.7 0.2 -16.8
v 8.7 0.3 -16.5
v 8.7 0.3 -16.6
v 8.7 0.3 -16.8
v 8.7 0.3 -16.9
v 8.7 0.4 -16.6
v 8.7 0.4 -16.8
v 8.8 0 -16.5
v 8.8 0 -16.6
v 8.8 0 -16.8
v 8.8 0 -16.9
v 8.8 0.1 -16.5
v 8.8 0.1 -16.6
v 8.8 0.1 -16.8
v 8.8 0.1 -16.9
v 8.8 0.2 -16.6
v 8.8 0.2 -16.8
v 8.8 0.3 -16.5
v 8.8 0.3 -16.6
v 8.8 0.3 -16.8
v 8.8 0.3 -16.9
v 8.8 0.4 -16.5
v 8.8 0.4 -16.6
v 8.8 0.4 -16.8
v 8.8 0.4 -16.9
v 9 0 -16.4
v 9 0 -16.5
v 9 0 -16.9
v 9 0 -17
v 9 0.1 -16.4
v 9 0.1 -16.5
v 9 0.1 -16.9
v 9 0.1 -17
v 9.1 0 -16.3
v 9.1 0 -16.4
v 9.1 0 -17
v 9.1 0 -17.1
v 9.1 0.1 -16.3
v 9.1 0.1 -16.4
v 9.1 0.1 -17
v 9.1 0.1 -17.1
v 9.5 0.2 -16.5
v 9.5 0.2 -16.6
v 9.5 0.2 -16.8
v 9.5 0.2 -16.9
v 9.5 0.3 -16.4
v 9.5 0.3 -16.5
v 9.5 0.3 -16.6
v 9.5 0.3 -16.8
v 9.5 0.3 -16.9
v 9.5 0.3 -17
v 9.5 0.4 -16.4
v 9.5 0.4 -16.6
v 9.5 0.4 -16.8
v 9.5 0.4 -17
v 9.1 0.3 -16.5
v 9.1 0.3 -16.9
v 9.1 0.4 -16.5
v 9.1 0.4 -16.9
v 9.2 0 -16.3
v 9.2 0 -16.5
v 9.2 0 -16.9
v 9.2 0 -17.1
v 9.2 0.1 -16.3
v 9.2 0.1 -16.5
v 9.2 0.1 -16.9
v 9.2 0.1 -17.1
v 9.3 0 -16.5
v 9.3 0 -16.6
v 9.3 0 -16.8
v 9.3 0 -16.9
v 9.3 0.1 -16.5
v 9.3 0.1 -16.6
v 9.3 0.1 -16.8
v 9.3 0.1 -16.9
v 9.3 0.2 -16.5
v 9.3 0.2 -16.9
v 9.3 0.3 -16.5
v 9.3 0.3 -16.9
v 9.4 0 -16.6
v 9.4 0 -16.8
v 9.4 0.1 -16.5
v 9.4 0.1 -16.6
v 9.4 0.1 -16.8
v 9.4 0.1 -16.9
v 9.4 0.2 -16.5
v 9.4 0.2 -16.6
v 9.4 0.2 -16.8
v 9.4 0.2 -16.9
v 9.5 0.1 -16.6
v 9.5 0.1 -16.8
v 9.5 0.2 -16.6
v 9.5 0.2 -16.8
v 9.6 0.2 -16.5
v 9.6 0.2 -16.9
v 9.6 0.3 -16.4
v 9.6 0.3 -16.5
v 9.6 0.3 -16.6
v 9.6 0.3 -16.8
v 9.6 0.3 -16.9
v 9.6 0.3 -17
v 9.6 0.4 -16.4
v 9.6 0.4 -16.6
v 9.6 0.4 -16.8
v 9.6 0.4 -17
v 9.1 0 -16.3
v 9.1 0.1 -16.3
v 9.2 0 -16.3
v 9.2 0.1 -16.3
v 9 0 -16.4
v 9 0.1 -16.4
v 9.1 0 -16.4
v 9.1 0.1 -16.4
v 9.5 0.3 -16.4
v 9.5 0.4 -16.4
v 9.6 0.3 -16.4
v 9.6 0.4 -16.4
v 8.7 0.1 -16.5
v 8.7 0.3 -16.5
v 8.8 0 -16.5
v 8.8 0.1 -16.5
v 8.8 0.2 -16.5
v 8.8 0.3 -16.5
v 8.8 0.4 -16.5
v 8.9 0.2 -16.5
v 8.9 0.3 -16.5
v 9 0 -16.5
v 9 0.1 -16.5
v 9.1 0.3 -16.5
v 9.1 0.4 -16.5
v 9.2 0 -16.5
v 9.2 0.1 -16.5
v 9.3 0 -16.5
v 9.3 0.1 -16.5
v 9.3 0.2 -16.5
v 9.3 0.3 -16.5
v 9.4 0.1 -16.5
v 9.4 0.2 -16.5
v 9.5 0.2 -16.5
v 9.5 0.3 -16.5
v 9.6 0.2 -16.5
v 9.6 0.3 -16.5
v 8.7 0 -16.6
v 8.7 0.1 -16.6
v 8.7 0.3 -16.6
v 8.7 0.4 -16.6
v 8.8 0 -16.6
v 8.8 0.1 -16.6
v 8.8 0.3 -16.6
v 8.8 0.4 -16.6
v 9.3 0 -16.6
v 9.3 0.1 -16.6
v 9.4 0 -16.6
v 9.4 0.1 -16.6
v 9.4 0.2 -16.6
v 9.5 0.1 -16.6
v 9.5 0.2 -16.6
v 8.7 0.1 -16.8
v 8.7 0.2 -16.8
v 8.8 0.1 -16.8
v 8.8 0.2 -16.8
v 9.5 0.3 -16.8
v 9.5 0.4 -16.8
v 9.6 0.3 -16.8
v 9.6 0.4 -16.8
v 8.7 0.1 -16.6
v 8.7 0.2 -16.6
v 8.8 0.1 -16.6
v 8.8 0.2 -16.6
v 9.5 0.3 -16.6
v 9.5 0.4 -16.6
v 9.6 0.3 -16.6
v 9.6 0.4 -16.6
v 8.7 0 -16.8
v 8.7 0.1 -16.8
v 8.7 0.3 -16.8
v 8.7 0.4 -16.8
v 8.8 0 -16.8
v 8.8 0.1 -16.8
v 8.8 0.3 -16.8
v 8.8 0.4 -16.8
v 9.3 0 -16.8
v 9.3 0.1 -16.8
v 9.4 0 -16.8
v 9.4 0.1 -16.8
v 9.4 0.2 -16.8
v 9.5 0.1 -16.8
v 9.5 0.2 -16.8
v 8.7 0.1 -16.9
v 8.7 0.3 -16.9
v 8.8 0 -16.9
v 8.8 0.1 -16.9
v 8.8 0.2 -16.9
v 8.8 0.3 -16.9
v 8.8 0.4 -16.9
v 8.9 0.2 -16.9
v 8.9 0.3 -16.9
v 9 0 -16.9
v 9 0.1 -16.9
v 9.1 0.3 -16.9
v 9.1 0.4 -16.9
v 9.2 0 -16.9
v 9.2 0.1 -16.9
v 9.3 0 -16.9
v 9.3 0.1 -16.9
v 9.3 0.2 -16.9
v 9.3 0.3 -16.9
v 9.4 0.1 -16.9
v 9.4 0.2 -16.9
v 9.5 0.2 -16.9
v 9.5 0.3 -16.9
v 9.6 0.2 -16.9
v 9.6 0.3 -16.9
v 9 0 -17
v 9 0.1 -17
v 9.1 0 -17
v 9.1 0.1 -17
v 9.5 0.3 -17
v 9.5 0.4 -17
v 9.6 0.3 -17
v 9.6 0.4 -17
v 9.1 0 -17.1
v 9.1 0.1 -17.1
v 9.2 0 -17.1
v 9.2 0.1 -17.1
v 9.1 0 -16.3
v 9.2 0 -16.3
v 9 0 -16.4
v 9.1 0 -16.4
v 8.8 0 -16.5
v 9 0 -16.5
v 9.2 0 -16.5
v 9.3 0 -16.5
v 8.7 0 -16.6
v 8.8 0 -16.6
v 9.3 0 -16.6
v 9.4 0 -16.6
v 8.7 0 -16.8
v 8.8 0 -16.8
v 9.3 0 -16.8
v 9.4 0 -16.8
v 8.8 0 -16.9
v 9 0 -16.9
v 9.2 0 -16.9
v 9.3 0 -16.9
v 9 0 -17
v 9.1 0 -17
v 9.1 0 -17.1
v 9.2 0 -17.1
v 8.7 0.1 -16.5
v 8.8 0.1 -16.5
v 9.3 0.1 -16.5
v 9.4 0.1 -16.5
v 8.7 0.1 -16.6
v 8.8 0.1 -16.6
v 9.3 0.1 -16.6
v 9.4 0.1 -16.6
v 9.5 0.1 -16.6
v 8.7 0.1 -16.8
v 8.8 0.1 -16.8
v 9.3 0.1 -16.8
v 9.4 0.1 -16.8
v 9.5 0.1 -16.8
v 8.7 0.1 -16.9
v 8.8 0.1 -16.9
v 9.3 0.1 -16.9
v 9.4 0.1 -16.9
v 9.5 0.2 -16.5
v 9.6 0.2 -16.5
v 8.7 0.2 -16.6
v 8.8 0.2 -16.6
v 9.5 0.2 -16.6
v 8.7 0.2 -16.8
v 8.8 0.2 -16.8
v 9.5 0.2 -16.8
v 9.5 0.2 -16.9
v 9.6 0.2 -16.9
v 9.5 0.3 -16.4
v 9.6 0.3 -16.4
v 9.5 0.3 -16.5
v 9.6 0.3 -16.5
v 9.5 0.3 -16.9
v 9.6 0.3 -16.9
v 9.5 0.3 -17
v 9.6 0.3 -17
v 9.1 0.1 -16.3
v 9.2 0.1 -16.3
v 9 0.1 -16.4
v 9.1 0.1 -16.4
v 9 0.1 -16.5
v 9.2 0.1 -16.5
v 8.7 0.1 -16.6
v 8.8 0.1 -16.6
v 8.7 0.1 -16.8
v 8.8 0.1 -16.8
v 9 0.1 -16.9
v 9.2 0.1 -16.9
v 9 0.1 -17
v 9.1 0.1 -17
v 9.1 0.1 -17.1
v 9.2 0.1 -17.1
v 9.3 0.2 -16.5
v 9.4 0.2 -16.5
v 9.4 0.2 -16.6
v 9.5 0.2 -16.6
v 9.4 0.2 -16.8
v 9.5 0.2 -16.8
v 9.3 0.2 -16.9
v 9.4 0.2 -16.9
v 8.7 0.3 -16.5
v 8.8 0.3 -16.5
v 9.1 0.3 -16.5
v 9.3 0.3 -16.5
v 8.7 0.3 -16.6
v 8.8 0.3 -16.6
v 9.5 0.3 -16.6
v 9.6 0.3 -16.6
v 8.7 0.3 -16.8
v 8.8 0.3 -16.8
v 9.5 0.3 -16.8
v 9.6 0.3 -16.8
v 8.7 0.3 -16.9
v 8.8 0.3 -16.9
v 9.1 0.3 -16.9
v 9.3 0.3 -16.9
v 9.5 0.4 -16.4
v 9.6 0.4 -16.4
v 8.8 0.4 -16.5
v 9.1 0.4 -16.5
v 8.7 0.4 -16.6
v 8.8 0.4 -16.6
v 9.5 0.4 -16.6
v 9.6 0.4 -16.6
v 8.7 0.4 -16.8
v 8.8 0.4 -16.8
v 9.5 0.4 -16.8
v 9.6 0.4 -16.8
v 8.8 0.4 -16.9
v 9.1 0.4 -16.9
v 9.5 0.4 -17
v 9.6 0.4 -17

# faces
f 4/3/1 2/3/1 1/3/1
f 5/3/1 2/3/1 4/3/1
f 7/2/1 4/2/1 3/2/1
f 8/2/1 6/2/1 5/2/1
f 9/2/1 7/2/1 3/2/1
f 9/2/1 8/2/1 7/2/1
f 10/2/1 8/2/1 9/2/1
f 11/2/1 6/2/1 8/2/1
f 11/2/1 8/2/1 10/2/1
f 12/2/1 6/2/1 11/2/1
f 13/2/1 11/2/1 10/2/1
f 14/2/1 11/2/1 13/2/1
f 19/3/1 16/3/1 15/3/1
f 20/3/1 16/3/1 19/3/1
f 21/3/1 18/3/1 17/3/1
f 22/3/1 18/3/1 21/3/1
f 23/1/1 21/1/1 20/1/1
f 24/1/1 21/1/1 23/1/1
f 29/2/1 26/2/1 25/2/1
f 30/2/1 26/2/1 29/2/1
f 31/2/1 28/2/1 27/2/1
f 32/2/1 28/2/1 31/2/1
f 37/2/1 34/2/1 33/2/1
f 38/2/1 34/2/1 37/2/1
f 39/2/1 36/2/1 35/2/1
f 40/2/1 36/2/1 39/2/1
f 45/2/1 42/2/1 41/2/1
f 46/2/1 42/2/1 45/2/1
f 47/2/1 44/2/1 43/2/1
f 48/2/1 44/2/1 47/2/1
f 54/2/1 50/2/1 49/2/1
f 54/2/1 52/2/1 51/2/1
f 54/2/1 51/2/1 50/2/1
f 55/2/1 52/2/1 54/2/1
f 56/2/1 52/2/1 55/2/1
f 57/2/1 52/2/1 56/2/1
f 59/2/1 54/2/1 53/2/1
f 59/2/1 55/2/1 54/2/1
f 60/2/1 55/2/1 59/2/1
f 61/2/1 58/2/1 57/2/1
f 61/2/1 57/2/1 56/2/1
f 62/2/1 58/2/1 61/2/1
f 63/2/2 64/2/2 65/2/2
f 65/2/2 64/2/2 66/2/2
f 67/2/2 68/2/2 71/2/2
f 71/2/2 68/2/2 72/2/2
f 69/2/2 70/2/2 73/2/2
f 73/2/2 70/2/2 74/2/2
f 75/3/2 76/3/2 79/3/2
f 79/3/2 76/3/2 80/3/2
f 77/3/2 78/3/2 81/3/2
f 81/3/2 78/3/2 82/3/2
f 83/2/2 84/2/2 85/2/2
f 85/2/2 84/2/2 86/2/2
f 87/3/2 88/3/2 90/3/2
f 90/3/2 88/3/2 91/3/2
f 89/2/2 90/2/2 93/2/2
f 93/2/2 90/2/2 94/2/2
f 91/2/2 92/2/2 95/2/2
f 95/2/2 92/2/2 96/2/2
f 97/2/2 98/2/2 99/2/2
f 99/2/2 98/2/2 100/2/2
f 101/2/2 102/2/2 104/2/2
f 104/2/2 102/2/2 105/2/2
f 105/2/2 102/2/2 106/2/2
f 106/2/2 102/2/2 107/2/2
f 103/2/2 104/2/2 109/2/2
f 104/2/2 105/2/2 109/2/2
f 109/2/2 105/2/2 110/2/2
f 107/2/2 108/2/2 111/2/2
f 106/2/2 107/2/2 111/2/2
f 111/2/2 108/2/2 112/2/2
f 115/2/3 114/2/3 113/2/3
f 116/2/3 114/2/3 115/2/3
f 119/2/3 118/2/3 117/2/3
f 120/2/3 118/2/3 119/2/3
f 123/2/3 122/2/3 121/2/3
f 124/2/3 122/2/3 123/2/3
f 128/2/3 126/2/3 125/2/3
f 129/2/3 126/2/3 128/2/3
f 130/2/3 126/2/3 129/2/3
f 132/2/3 129/2/3 128/2/3
f 132/4/3 130/4/3 129/4/3
f 133/2/3 131/2/3 130/2/3
f 133/4/3 130/4/3 132/4/3
f 134/3/3 128/3/3 127/3/3
f 135/2/3 132/2/3 128/2/3
f 135/3/3 128/3/3 134/3/3
f 135/2/3 133/2/3 132/2/3
f 136/2/3 131/2/3 133/2/3
f 136/2/3 133/2/3 135/2/3
f 137/2/3 131/2/3 136/2/3
f 139/2/3 136/2/3 135/2/3
f 140/3/3 139/3/3 138/3/3
f 141/2/3 136/2/3 139/2/3
f 141/3/3 139/3/3 140/3/3
f 142/2/3 136/2/3 141/2/3
f 143/2/3 136/2/3 142/2/3
f 144/2/3 142/2/3 141/2/3
f 145/2/3 142/2/3 144/2/3
f 148/2/3 147/2/3 146/2/3
f 149/2/3 147/2/3 148/2/3
f 154/3/3 151/3/3 150/3/3
f 155/3/3 151/3/3 154/3/3
f 156/2/3 153/2/3 152/2/3
f 157/2/3 153/2/3 156/2/3
f 160/3/3 159/3/3 158/3/3
f 161/3/3 159/3/3 160/3/3
f 163/2/3 162/2/3 161/2/3
f 164/2/3 162/2/3 163/2/3
f 167/2/3 166/2/3 165/2/3
f 168/2/3 166/2/3 167/2/3
f 171/2/3 170/2/3 169/2/3
f 172/2/3 170/2/3 171/2/3
f 173/2/4 174/2/4 175/2/4
f 175/2/4 174/2/4 176/2/4
f 177/2/4 178/2/4 179/2/4
f 179/2/4 178/2/4 180/2/4
f 181/3/4 182/3/4 185/3/4
f 185/3/4 182/3/4 186/3/4
f 183/2/4 184/2/4 187/2/4
f 187/2/4 184/2/4 188/2/4
f 189/3/4 190/3/4 191/3/4
f 191/3/4 190/3/4 192/3/4
f 192/2/4 193/2/4 194/2/4
f 194/2/4 193/2/4 195/2/4
f 196/2/4 197/2/4 199/2/4
f 199/2/4 197/2/4 200/2/4
f 200/2/4 197/2/4 201/2/4
f 199/2/4 200/2/4 203/2/4
f 200/4/4 201/4/4 203/4/4
f 201/2/4 202/2/4 204/2/4
f 203/4/4 201/4/4 204/4/4
f 198/3/4 199/3/4 205/3/4
f 199/2/4 203/2/4 206/2/4
f 205/3/4 199/3/4 206/3/4
f 203/2/4 204/2/4 206/2/4
f 204/2/4 202/2/4 207/2/4
f 206/2/4 204/2/4 207/2/4
f 207/2/4 202/2/4 208/2/4
f 206/2/4 207/2/4 210/2/4
f 209/3/4 210/3/4 211/3/4
f 210/2/4 207/2/4 212/2/4
f 211/3/4 210/3/4 212/3/4
f 212/2/4 207/2/4 213/2/4
f 213/2/4 207/2/4 214/2/4
f 212/2/4 213/2/4 215/2/4
f 215/2/4 213/2/4 216/2/4
f 217/2/4 218/2/4 219/2/4
f 219/2/4 218/2/4 220/2/4
f 221/2/4 222/2/4 223/2/4
f 223/2/4 222/2/4 224/2/4
f 225/2/4 226/2/4 227/2/4
f 227/2/4 226/2/4 228/2/4
f 229/2/4 230/2/4 231/2/4
f 231/2/4 230/2/4 232/2/4
f 236/2/5 234/2/5 233/2/5
f 238/2/5 236/2/5 235/2/5
f 239/2/5 234/2/5 236/2/5
f 239/2/5 236/2/5 238/2/5
f 242/3/5 238/3/5 237/3/5
f 242/3/5 240/3/5 239/3/5
f 242/3/5 239/3/5 238/3/5
f 243/3/5 240/3/5 242/3/5
f 245/3/5 242/3/5 241/3/5
f 245/3/5 244/3/5 243/3/5
f 245/3/5 243/3/5 242/3/5
f 246/3/5 244/3/5 245/3/5
f 247/3/5 244/3/5 246/3/5
f 248/3/5 244/3/5 247/3/5
f 249/3/5 247/3/5 246/3/5
f 250/3/5 247/3/5 249/3/5
f 251/3/5 247/3/5 250/3/5
f 252/3/5 247/3/5 251/3/5
f 253/2/5 251/2/5 250/2/5
f 254/2/5 251/2/5 253/2/5
f 255/2/5 251/2/5 254/2/5
f 256/2/5 251/2/5 255/2/5
f 261/2/5 258/2/5 257/2/5
f 262/2/5 258/2/5 261/2/5
f 263/2/5 260/2/5 259/2/5
f 264/2/5 260/2/5 263/2/5
f 269/2/5 265/2/5 264/2/5
f 270/2/5 265/2/5 269/2/5
f 271/2/5 267/2/5 266/2/5
f 272/2/5 267/2/5 271/2/5
f 273/2/5 269/2/5 268/2/5
f 274/2/5 269/2/5 273/2/5
f 279/2/5 276/2/5 275/2/5
f 280/2/5 278/2/5 277/2/5
f 281/2/5 278/2/5 280/2/5
f 282/2/5 276/2/5 279/2/5
f 283/2/5 276/2/5 282/2/5
f 284/2/5 276/2/5 283/2/5
f 287/2/5 286/2/5 285/2/5
f 288/2/5 286/2/5 287/2/5
f 291/2/5 290/2/5 289/2/5
f 292/2/5 290/2/5 291/2/5
f 293/2/6 294/2/6 296/2/6
f 295/2/6 296/2/6 297/2/6
f 296/2/6 294/2/6 298/2/6
f 297/2/6 296/2/6 298/2/6
f 299/3/6 300/3/6 301/3/6
f 301/3/6 300/3/6 302/3/6
f 303/2/6 304/2/6 305/2/6
f 305/2/6 304/2/6 306/2/6
f 306/2/6 304/2/6 307/2/6
f 307/2/6 304/2/6 308/2/6
f 309/2/6 310/2/6 311/2/6
f 309/2/6 311/2/6 313/2/6
f 311/2/6 312/2/6 313/2/6
f 313/2/6 312/2/6 314/2/6
f 309/2/6 313/2/6 315/2/6
f 315/2/6 313/2/6 316/2/6
f 317/2/6 318/2/6 321/2/6
f 321/2/6 318/2/6 322/2/6
f 323/2/6 324/2/6 327/2/6
f 327/2/6 324/2/6 328/2/6
f 325/2/6 326/2/6 329/2/6
f 329/2/6 326/2/6 330/2/6
f 319/2/6 320/2/6 331/2/6
f 331/2/6 320/2/6 332/2/6
f 335/2/6 336/2/6 338/2/6
f 333/2/6 334/2/6 339/2/6
f 339/2/6 334/2/6 340/2/6
f 337/2/6 338/2/6 341/2/6
f 338/2/6 336/2/6 342/2/6
f 341/2/6 338/2/6 342/2/6
f 342/2/6 336/2/6 345/2/6
f 345/2/6 336/2/6 346/2/6
f 343/2/6 344/2/6 347/2/6
f 347/2/6 344/2/6 348/2/6
