# MagicaVoxel @ Ephtracy

# group
o props_whalesp

# material
mtllib overworld-17-props_whalesp.mtl
usemtl palette

# normals
vn -1 0 0
vn 1 0 0
vn 0 0 1
vn 0 0 -1
vn 0 -1 0
vn 0 1 0

# texcoords
vt 0.0410156 0.5
vt 0.919922 0.5
vt 0.978516 0.5
vt 0.982422 0.5
vt 0.994141 0.5

# verts
v 7.3 0 -16.5
v 7.3 0 -16.7
v 7.3 0.1 -16.4
v 7.3 0.1 -16.5
v 7.3 0.1 -16.7
v 7.3 0.1 -16.8
v 7.3 0.2 -16.5
v 7.3 0.2 -16.7
v 7.3 0.3 -16.4
v 7.3 0.3 -16.5
v 7.3 0.3 -16.7
v 7.3 0.3 -16.8
v 7.3 0.4 -16.5
v 7.3 0.4 -16.7
v 7.4 0 -16.4
v 7.4 0 -16.5
v 7.4 0 -16.7
v 7.4 0 -16.8
v 7.4 0.1 -16.4
v 7.4 0.1 -16.5
v 7.4 0.1 -16.7
v 7.4 0.1 -16.8
v 7.4 0.2 -16.5
v 7.4 0.2 -16.7
v 7.4 0.3 -16.4
v 7.4 0.3 -16.5
v 7.4 0.3 -16.7
v 7.4 0.3 -16.8
v 7.4 0.4 -16.4
v 7.4 0.4 -16.5
v 7.4 0.4 -16.7
v 7.4 0.4 -16.8
v 7.4 0.7 -16.6
v 7.4 0.7 -16.7
v 7.4 0.8 -16.6
v 7.4 0.8 -16.7
v 7.5 0.4 -16.6
v 7.5 0.4 -16.7
v 7.5 0.7 -16.5
v 7.5 0.7 -16.6
v 7.5 0.7 -16.7
v 7.5 0.7 -16.8
v 7.5 0.8 -16.5
v 7.5 0.8 -16.6
v 7.5 0.8 -16.7
v 7.5 0.8 -16.8
v 7.6 0 -16.3
v 7.6 0 -16.4
v 7.6 0 -16.8
v 7.6 0 -16.9
v 7.6 0.1 -16.3
v 7.6 0.1 -16.4
v 7.6 0.1 -16.8
v 7.6 0.1 -16.9
v 7.6 0.7 -16.6
v 7.6 0.7 -16.7
v 7.6 0.8 -16.6
v 7.6 0.8 -16.7
v 7.7 0 -16.2
v 7.7 0 -16.3
v 7.7 0 -16.9
v 7.7 0 -17
v 7.7 0.1 -16.2
v 7.7 0.1 -16.3
v 7.7 0.1 -16.9
v 7.7 0.1 -17
v 8.1 0.2 -16.4
v 8.1 0.2 -16.5
v 8.1 0.2 -16.7
v 8.1 0.2 -16.8
v 8.1 0.3 -16.3
v 8.1 0.3 -16.4
v 8.1 0.3 -16.5
v 8.1 0.3 -16.7
v 8.1 0.3 -16.8
v 8.1 0.3 -16.9
v 8.1 0.4 -16.3
v 8.1 0.4 -16.5
v 8.1 0.4 -16.7
v 8.1 0.4 -16.9
v 7.5 0.7 -16.6
v 7.5 0.7 -16.7
v 7.5 0.8 -16.6
v 7.5 0.8 -16.7
v 7.6 0.4 -16.6
v 7.6 0.4 -16.7
v 7.6 0.7 -16.5
v 7.6 0.7 -16.6
v 7.6 0.7 -16.7
v 7.6 0.7 -16.8
v 7.6 0.8 -16.5
v 7.6 0.8 -16.6
v 7.6 0.8 -16.7
v 7.6 0.8 -16.8
v 7.7 0.3 -16.4
v 7.7 0.3 -16.8
v 7.7 0.4 -16.4
v 7.7 0.4 -16.8
v 7.7 0.7 -16.6
v 7.7 0.7 -16.7
v 7.7 0.8 -16.6
v 7.7 0.8 -16.7
v 7.8 0 -16.2
v 7.8 0 -16.4
v 7.8 0 -16.8
v 7.8 0 -17
v 7.8 0.1 -16.2
v 7.8 0.1 -16.4
v 7.8 0.1 -16.8
v 7.8 0.1 -17
v 7.9 0 -16.4
v 7.9 0 -16.5
v 7.9 0 -16.7
v 7.9 0 -16.8
v 7.9 0.1 -16.4
v 7.9 0.1 -16.5
v 7.9 0.1 -16.7
v 7.9 0.1 -16.8
v 7.9 0.2 -16.4
v 7.9 0.2 -16.8
v 7.9 0.3 -16.4
v 7.9 0.3 -16.8
v 8 0 -16.5
v 8 0 -16.7
v 8 0.1 -16.4
v 8 0.1 -16.5
v 8 0.1 -16.7
v 8 0.1 -16.8
v 8 0.2 -16.4
v 8 0.2 -16.5
v 8 0.2 -16.7
v 8 0.2 -16.8
v 8.1 0.1 -16.5
v 8.1 0.1 -16.7
v 8.1 0.2 -16.5
v 8.1 0.2 -16.7
v 8.2 0.2 -16.4
v 8.2 0.2 -16.8
v 8.2 0.3 -16.3
v 8.2 0.3 -16.4
v 8.2 0.3 -16.5
v 8.2 0.3 -16.7
v 8.2 0.3 -16.8
v 8.2 0.3 -16.9
v 8.2 0.4 -16.3
v 8.2 0.4 -16.5
v 8.2 0.4 -16.7
v 8.2 0.4 -16.9
v 7.7 0 -16.2
v 7.7 0.1 -16.2
v 7.8 0 -16.2
v 7.8 0.1 -16.2
v 7.6 0 -16.3
v 7.6 0.1 -16.3
v 7.7 0 -16.3
v 7.7 0.1 -16.3
v 8.1 0.3 -16.3
v 8.1 0.4 -16.3
v 8.2 0.3 -16.3
v 8.2 0.4 -16.3
v 7.3 0.1 -16.4
v 7.3 0.3 -16.4
v 7.4 0 -16.4
v 7.4 0.1 -16.4
v 7.4 0.2 -16.4
v 7.4 0.3 -16.4
v 7.4 0.4 -16.4
v 7.5 0.2 -16.4
v 7.5 0.3 -16.4
v 7.6 0 -16.4
v 7.6 0.1 -16.4
v 7.7 0.3 -16.4
v 7.7 0.4 -16.4
v 7.8 0 -16.4
v 7.8 0.1 -16.4
v 7.9 0 -16.4
v 7.9 0.1 -16.4
v 7.9 0.2 -16.4
v 7.9 0.3 -16.4
v 8 0.1 -16.4
v 8 0.2 -16.4
v 8.1 0.2 -16.4
v 8.1 0.3 -16.4
v 8.2 0.2 -16.4
v 8.2 0.3 -16.4
v 7.3 0 -16.5
v 7.3 0.1 -16.5
v 7.3 0.3 -16.5
v 7.3 0.4 -16.5
v 7.4 0 -16.5
v 7.4 0.1 -16.5
v 7.4 0.3 -16.5
v 7.4 0.4 -16.5
v 7.5 0.7 -16.5
v 7.5 0.8 -16.5
v 7.6 0.7 -16.5
v 7.6 0.8 -16.5
v 7.9 0 -16.5
v 7.9 0.1 -16.5
v 8 0 -16.5
v 8 0.1 -16.5
v 8 0.2 -16.5
v 8.1 0.1 -16.5
v 8.1 0.2 -16.5
v 7.4 0.7 -16.6
v 7.4 0.8 -16.6
v 7.5 0.4 -16.6
v 7.5 0.7 -16.6
v 7.5 0.8 -16.6
v 7.6 0.4 -16.6
v 7.6 0.7 -16.6
v 7.6 0.8 -16.6
v 7.7 0.7 -16.6
v 7.7 0.8 -16.6
v 7.3 0.1 -16.7
v 7.3 0.2 -16.7
v 7.4 0.1 -16.7
v 7.4 0.2 -16.7
v 7.5 0.7 -16.7
v 7.5 0.8 -16.7
v 7.6 0.7 -16.7
v 7.6 0.8 -16.7
v 8.1 0.3 -16.7
v 8.1 0.4 -16.7
v 8.2 0.3 -16.7
v 8.2 0.4 -16.7
v 7.3 0.1 -16.5
v 7.3 0.2 -16.5
v 7.4 0.1 -16.5
v 7.4 0.2 -16.5
v 8.1 0.3 -16.5
v 8.1 0.4 -16.5
v 8.2 0.3 -16.5
v 8.2 0.4 -16.5
v 7.5 0.7 -16.6
v 7.5 0.8 -16.6
v 7.6 0.7 -16.6
v 7.6 0.8 -16.6
v 7.3 0 -16.7
v 7.3 0.1 -16.7
v 7.3 0.3 -16.7
v 7.3 0.4 -16.7
v 7.4 0 -16.7
v 7.4 0.1 -16.7
v 7.4 0.3 -16.7
v 7.4 0.4 -16.7
v 7.4 0.7 -16.7
v 7.4 0.8 -16.7
v 7.5 0.4 -16.7
v 7.5 0.7 -16.7
v 7.5 0.8 -16.7
v 7.6 0.4 -16.7
v 7.6 0.7 -16.7
v 7.6 0.8 -16.7
v 7.7 0.7 -16.7
v 7.7 0.8 -16.7
v 7.9 0 -16.7
v 7.9 0.1 -16.7
v 8 0 -16.7
v 8 0.1 -16.7
v 8 0.2 -16.7
v 8.1 0.1 -16.7
v 8.1 0.2 -16.7
v 7.3 0.1 -16.8
v 7.3 0.3 -16.8
v 7.4 0 -16.8
v 7.4 0.1 -16.8
v 7.4 0.2 -16.8
v 7.4 0.3 -16.8
v 7.4 0.4 -16.8
v 7.5 0.2 -16.8
v 7.5 0.3 -16.8
v 7.5 0.7 -16.8
v 7.5 0.8 -16.8
v 7.6 0 -16.8
v 7.6 0.1 -16.8
v 7.6 0.7 -16.8
v 7.6 0.8 -16.8
v 7.7 0.3 -16.8
v 7.7 0.4 -16.8
v 7.8 0 -16.8
v 7.8 0.1 -16.8
v 7.9 0 -16.8
v 7.9 0.1 -16.8
v 7.9 0.2 -16.8
v 7.9 0.3 -16.8
v 8 0.1 -16.8
v 8 0.2 -16.8
v 8.1 0.2 -16.8
v 8.1 0.3 -16.8
v 8.2 0.2 -16.8
v 8.2 0.3 -16.8
v 7.6 0 -16.9
v 7.6 0.1 -16.9
v 7.7 0 -16.9
v 7.7 0.1 -16.9
v 8.1 0.3 -16.9
v 8.1 0.4 -16.9
v 8.2 0.3 -16.9
v 8.2 0.4 -16.9
v 7.7 0 -17
v 7.7 0.1 -17
v 7.8 0 -17
v 7.8 0.1 -17
v 7.7 0 -16.2
v 7.8 0 -16.2
v 7.6 0 -16.3
v 7.7 0 -16.3
v 7.4 0 -16.4
v 7.6 0 -16.4
v 7.8 0 -16.4
v 7.9 0 -16.4
v 7.3 0 -16.5
v 7.4 0 -16.5
v 7.9 0 -16.5
v 8 0 -16.5
v 7.3 0 -16.7
v 7.4 0 -16.7
v 7.9 0 -16.7
v 8 0 -16.7
v 7.4 0 -16.8
v 7.6 0 -16.8
v 7.8 0 -16.8
v 7.9 0 -16.8
v 7.6 0 -16.9
v 7.7 0 -16.9
v 7.7 0 -17
v 7.8 0 -17
v 7.3 0.1 -16.4
v 7.4 0.1 -16.4
v 7.9 0.1 -16.4
v 8 0.1 -16.4
v 7.3 0.1 -16.5
v 7.4 0.1 -16.5
v 7.9 0.1 -16.5
v 8 0.1 -16.5
v 8.1 0.1 -16.5
v 7.3 0.1 -16.7
v 7.4 0.1 -16.7
v 7.9 0.1 -16.7
v 8 0.1 -16.7
v 8.1 0.1 -16.7
v 7.3 0.1 -16.8
v 7.4 0.1 -16.8
v 7.9 0.1 -16.8
v 8 0.1 -16.8
v 8.1 0.2 -16.4
v 8.2 0.2 -16.4
v 7.3 0.2 -16.5
v 7.4 0.2 -16.5
v 8.1 0.2 -16.5
v 7.3 0.2 -16.7
v 7.4 0.2 -16.7
v 8.1 0.2 -16.7
v 8.1 0.2 -16.8
v 8.2 0.2 -16.8
v 8.1 0.3 -16.3
v 8.2 0.3 -16.3
v 8.1 0.3 -16.4
v 8.2 0.3 -16.4
v 8.1 0.3 -16.8
v 8.2 0.3 -16.8
v 8.1 0.3 -16.9
v 8.2 0.3 -16.9
v 7.5 0.7 -16.5
v 7.6 0.7 -16.5
v 7.4 0.7 -16.6
v 7.5 0.7 -16.6
v 7.6 0.7 -16.6
v 7.7 0.7 -16.6
v 7.4 0.7 -16.7
v 7.5 0.7 -16.7
v 7.6 0.7 -16.7
v 7.7 0.7 -16.7
v 7.5 0.7 -16.8
v 7.6 0.7 -16.8
v 7.7 0.1 -16.2
v 7.8 0.1 -16.2
v 7.6 0.1 -16.3
v 7.7 0.1 -16.3
v 7.6 0.1 -16.4
v 7.8 0.1 -16.4
v 7.3 0.1 -16.5
v 7.4 0.1 -16.5
v 7.3 0.1 -16.7
v 7.4 0.1 -16.7
v 7.6 0.1 -16.8
v 7.8 0.1 -16.8
v 7.6 0.1 -16.9
v 7.7 0.1 -16.9
v 7.7 0.1 -17
v 7.8 0.1 -17
v 7.9 0.2 -16.4
v 8 0.2 -16.4
v 8 0.2 -16.5
v 8.1 0.2 -16.5
v 8 0.2 -16.7
v 8.1 0.2 -16.7
v 7.9 0.2 -16.8
v 8 0.2 -16.8
v 7.3 0.3 -16.4
v 7.4 0.3 -16.4
v 7.7 0.3 -16.4
v 7.9 0.3 -16.4
v 7.3 0.3 -16.5
v 7.4 0.3 -16.5
v 8.1 0.3 -16.5
v 8.2 0.3 -16.5
v 7.3 0.3 -16.7
v 7.4 0.3 -16.7
v 8.1 0.3 -16.7
v 8.2 0.3 -16.7
v 7.3 0.3 -16.8
v 7.4 0.3 -16.8
v 7.7 0.3 -16.8
v 7.9 0.3 -16.8
v 8.1 0.4 -16.3
v 8.2 0.4 -16.3
v 7.4 0.4 -16.4
v 7.7 0.4 -16.4
v 7.3 0.4 -16.5
v 7.4 0.4 -16.5
v 8.1 0.4 -16.5
v 8.2 0.4 -16.5
v 7.5 0.4 -16.6
v 7.6 0.4 -16.6
v 7.3 0.4 -16.7
v 7.4 0.4 -16.7
v 7.5 0.4 -16.7
v 7.6 0.4 -16.7
v 8.1 0.4 -16.7
v 8.2 0.4 -16.7
v 7.4 0.4 -16.8
v 7.7 0.4 -16.8
v 8.1 0.4 -16.9
v 8.2 0.4 -16.9
v 7.5 0.7 -16.6
v 7.6 0.7 -16.6
v 7.5 0.7 -16.7
v 7.6 0.7 -16.7
v 7.5 0.8 -16.5
v 7.6 0.8 -16.5
v 7.4 0.8 -16.6
v 7.5 0.8 -16.6
v 7.6 0.8 -16.6
v 7.7 0.8 -16.6
v 7.4 0.8 -16.7
v 7.5 0.8 -16.7
v 7.6 0.8 -16.7
v 7.7 0.8 -16.7
v 7.5 0.8 -16.8
v 7.6 0.8 -16.8

# faces
f 4/4/1 2/4/1 1/4/1
f 5/4/1 2/4/1 4/4/1
f 7/3/1 4/3/1 3/3/1
f 8/3/1 6/3/1 5/3/1
f 9/3/1 7/3/1 3/3/1
f 9/3/1 8/3/1 7/3/1
f 10/3/1 8/3/1 9/3/1
f 11/3/1 6/3/1 8/3/1
f 11/3/1 8/3/1 10/3/1
f 12/3/1 6/3/1 11/3/1
f 13/3/1 11/3/1 10/3/1
f 14/3/1 11/3/1 13/3/1
f 19/4/1 16/4/1 15/4/1
f 20/4/1 16/4/1 19/4/1
f 21/4/1 18/4/1 17/4/1
f 22/4/1 18/4/1 21/4/1
f 23/1/1 21/1/1 20/1/1
f 24/1/1 21/1/1 23/1/1
f 29/3/1 26/3/1 25/3/1
f 30/3/1 26/3/1 29/3/1
f 31/3/1 28/3/1 27/3/1
f 32/3/1 28/3/1 31/3/1
f 35/2/1 34/2/1 33/2/1
f 36/2/1 34/2/1 35/2/1
f 40/2/1 38/2/1 37/2/1
f 41/2/1 38/2/1 40/2/1
f 43/2/1 40/2/1 39/2/1
f 44/2/1 40/2/1 43/2/1
f 45/2/1 42/2/1 41/2/1
f 46/2/1 42/2/1 45/2/1
f 51/3/1 48/3/1 47/3/1
f 52/3/1 48/3/1 51/3/1
f 53/3/1 50/3/1 49/3/1
f 54/3/1 50/3/1 53/3/1
f 57/2/1 56/2/1 55/2/1
f 58/2/1 56/2/1 57/2/1
f 63/3/1 60/3/1 59/3/1
f 64/3/1 60/3/1 63/3/1
f 65/3/1 62/3/1 61/3/1
f 66/3/1 62/3/1 65/3/1
f 72/3/1 68/3/1 67/3/1
f 72/3/1 70/3/1 69/3/1
f 72/3/1 69/3/1 68/3/1
f 73/3/1 70/3/1 72/3/1
f 74/3/1 70/3/1 73/3/1
f 75/3/1 70/3/1 74/3/1
f 77/3/1 72/3/1 71/3/1
f 77/3/1 73/3/1 72/3/1
f 78/3/1 73/3/1 77/3/1
f 79/3/1 76/3/1 75/3/1
f 79/3/1 75/3/1 74/3/1
f 80/3/1 76/3/1 79/3/1
f 81/2/2 82/2/2 83/2/2
f 83/2/2 82/2/2 84/2/2
f 85/2/2 86/2/2 88/2/2
f 88/2/2 86/2/2 89/2/2
f 87/2/2 88/2/2 91/2/2
f 91/2/2 88/2/2 92/2/2
f 89/2/2 90/2/2 93/2/2
f 93/2/2 90/2/2 94/2/2
f 95/3/2 96/3/2 97/3/2
f 97/3/2 96/3/2 98/3/2
f 99/2/2 100/2/2 101/2/2
f 101/2/2 100/2/2 102/2/2
f 103/3/2 104/3/2 107/3/2
f 107/3/2 104/3/2 108/3/2
f 105/3/2 106/3/2 109/3/2
f 109/3/2 106/3/2 110/3/2
f 111/4/2 112/4/2 115/4/2
f 115/4/2 112/4/2 116/4/2
f 113/4/2 114/4/2 117/4/2
f 117/4/2 114/4/2 118/4/2
f 119/3/2 120/3/2 121/3/2
f 121/3/2 120/3/2 122/3/2
f 123/4/2 124/4/2 126/4/2
f 126/4/2 124/4/2 127/4/2
f 125/3/2 126/3/2 129/3/2
f 129/3/2 126/3/2 130/3/2
f 127/3/2 128/3/2 131/3/2
f 131/3/2 128/3/2 132/3/2
f 133/3/2 134/3/2 135/3/2
f 135/3/2 134/3/2 136/3/2
f 137/3/2 138/3/2 140/3/2
f 140/3/2 138/3/2 141/3/2
f 141/3/2 138/3/2 142/3/2
f 142/3/2 138/3/2 143/3/2
f 139/3/2 140/3/2 145/3/2
f 140/3/2 141/3/2 145/3/2
f 145/3/2 141/3/2 146/3/2
f 143/3/2 144/3/2 147/3/2
f 142/3/2 143/3/2 147/3/2
f 147/3/2 144/3/2 148/3/2
f 151/3/3 150/3/3 149/3/3
f 152/3/3 150/3/3 151/3/3
f 155/3/3 154/3/3 153/3/3
f 156/3/3 154/3/3 155/3/3
f 159/3/3 158/3/3 157/3/3
f 160/3/3 158/3/3 159/3/3
f 164/3/3 162/3/3 161/3/3
f 165/3/3 162/3/3 164/3/3
f 166/3/3 162/3/3 165/3/3
f 168/3/3 165/3/3 164/3/3
f 168/5/3 166/5/3 165/5/3
f 169/3/3 167/3/3 166/3/3
f 169/5/3 166/5/3 168/5/3
f 170/4/3 164/4/3 163/4/3
f 171/3/3 168/3/3 164/3/3
f 171/4/3 164/4/3 170/4/3
f 171/3/3 169/3/3 168/3/3
f 172/3/3 167/3/3 169/3/3
f 172/3/3 169/3/3 171/3/3
f 173/3/3 167/3/3 172/3/3
f 175/3/3 172/3/3 171/3/3
f 176/4/3 175/4/3 174/4/3
f 177/3/3 172/3/3 175/3/3
f 177/4/3 175/4/3 176/4/3
f 178/3/3 172/3/3 177/3/3
f 179/3/3 172/3/3 178/3/3
f 180/3/3 178/3/3 177/3/3
f 181/3/3 178/3/3 180/3/3
f 184/3/3 183/3/3 182/3/3
f 185/3/3 183/3/3 184/3/3
f 190/4/3 187/4/3 186/4/3
f 191/4/3 187/4/3 190/4/3
f 192/3/3 189/3/3 188/3/3
f 193/3/3 189/3/3 192/3/3
f 196/2/3 195/2/3 194/2/3
f 197/2/3 195/2/3 196/2/3
f 200/4/3 199/4/3 198/4/3
f 201/4/3 199/4/3 200/4/3
f 203/3/3 202/3/3 201/3/3
f 204/3/3 202/3/3 203/3/3
f 208/2/3 206/2/3 205/2/3
f 209/2/3 206/2/3 208/2/3
f 210/2/3 208/2/3 207/2/3
f 211/2/3 208/2/3 210/2/3
f 213/2/3 212/2/3 211/2/3
f 214/2/3 212/2/3 213/2/3
f 217/3/3 216/3/3 215/3/3
f 218/3/3 216/3/3 217/3/3
f 221/2/3 220/2/3 219/2/3
f 222/2/3 220/2/3 221/2/3
f 225/3/3 224/3/3 223/3/3
f 226/3/3 224/3/3 225/3/3
f 227/3/4 228/3/4 229/3/4
f 229/3/4 228/3/4 230/3/4
f 231/3/4 232/3/4 233/3/4
f 233/3/4 232/3/4 234/3/4
f 235/2/4 236/2/4 237/2/4
f 237/2/4 236/2/4 238/2/4
f 239/4/4 240/4/4 243/4/4
f 243/4/4 240/4/4 244/4/4
f 241/3/4 242/3/4 245/3/4
f 245/3/4 242/3/4 246/3/4
f 247/2/4 248/2/4 250/2/4
f 250/2/4 248/2/4 251/2/4
f 249/2/4 250/2/4 252/2/4
f 252/2/4 250/2/4 253/2/4
f 253/2/4 254/2/4 255/2/4
f 255/2/4 254/2/4 256/2/4
f 257/4/4 258/4/4 259/4/4
f 259/4/4 258/4/4 260/4/4
f 260/3/4 261/3/4 262/3/4
f 262/3/4 261/3/4 263/3/4
f 264/3/4 265/3/4 267/3/4
f 267/3/4 265/3/4 268/3/4
f 268/3/4 265/3/4 269/3/4
f 267/3/4 268/3/4 271/3/4
f 268/5/4 269/5/4 271/5/4
f 269/3/4 270/3/4 272/3/4
f 271/5/4 269/5/4 272/5/4
f 266/4/4 267/4/4 275/4/4
f 267/3/4 271/3/4 276/3/4
f 275/4/4 267/4/4 276/4/4
f 271/3/4 272/3/4 276/3/4
f 273/2/4 274/2/4 277/2/4
f 277/2/4 274/2/4 278/2/4
f 276/3/4 272/3/4 279/3/4
f 272/3/4 270/3/4 279/3/4
f 279/3/4 270/3/4 280/3/4
f 276/3/4 279/3/4 282/3/4
f 281/4/4 282/4/4 283/4/4
f 282/3/4 279/3/4 284/3/4
f 283/4/4 282/4/4 284/4/4
f 284/3/4 279/3/4 285/3/4
f 285/3/4 279/3/4 286/3/4
f 284/3/4 285/3/4 287/3/4
f 287/3/4 285/3/4 288/3/4
f 289/3/4 290/3/4 291/3/4
f 291/3/4 290/3/4 292/3/4
f 293/3/4 294/3/4 295/3/4
f 295/3/4 294/3/4 296/3/4
f 297/3/4 298/3/4 299/3/4
f 299/3/4 298/3/4 300/3/4
f 301/3/4 302/3/4 303/3/4
f 303/3/4 302/3/4 304/3/4
f 308/3/5 306/3/5 305/3/5
f 310/3/5 308/3/5 307/3/5
f 311/3/5 306/3/5 308/3/5
f 311/3/5 308/3/5 310/3/5
f 314/4/5 310/4/5 309/4/5
f 314/4/5 312/4/5 311/4/5
f 314/4/5 311/4/5 310/4/5
f 315/4/5 312/4/5 314/4/5
f 317/4/5 314/4/5 313/4/5
f 317/4/5 316/4/5 315/4/5
f 317/4/5 315/4/5 314/4/5
f 318/4/5 316/4/5 317/4/5
f 319/4/5 316/4/5 318/4/5
f 320/4/5 316/4/5 319/4/5
f 321/4/5 319/4/5 318/4/5
f 322/4/5 319/4/5 321/4/5
f 323/4/5 319/4/5 322/4/5
f 324/4/5 319/4/5 323/4/5
f 325/3/5 323/3/5 322/3/5
f 326/3/5 323/3/5 325/3/5
f 327/3/5 323/3/5 326/3/5
f 328/3/5 323/3/5 327/3/5
f 333/3/5 330/3/5 329/3/5
f 334/3/5 330/3/5 333/3/5
f 335/3/5 332/3/5 331/3/5
f 336/3/5 332/3/5 335/3/5
f 341/3/5 337/3/5 336/3/5
f 342/3/5 337/3/5 341/3/5
f 343/3/5 339/3/5 338/3/5
f 344/3/5 339/3/5 343/3/5
f 345/3/5 341/3/5 340/3/5
f 346/3/5 341/3/5 345/3/5
f 351/3/5 348/3/5 347/3/5
f 352/3/5 350/3/5 349/3/5
f 353/3/5 350/3/5 352/3/5
f 354/3/5 348/3/5 351/3/5
f 355/3/5 348/3/5 354/3/5
f 356/3/5 348/3/5 355/3/5
f 359/3/5 358/3/5 357/3/5
f 360/3/5 358/3/5 359/3/5
f 363/3/5 362/3/5 361/3/5
f 364/3/5 362/3/5 363/3/5
f 368/2/5 366/2/5 365/2/5
f 369/2/5 366/2/5 368/2/5
f 371/2/5 368/2/5 367/2/5
f 372/2/5 368/2/5 371/2/5
f 373/2/5 370/2/5 369/2/5
f 374/2/5 370/2/5 373/2/5
f 375/2/5 373/2/5 372/2/5
f 376/2/5 373/2/5 375/2/5
f 377/3/6 378/3/6 380/3/6
f 379/3/6 380/3/6 381/3/6
f 380/3/6 378/3/6 382/3/6
f 381/3/6 380/3/6 382/3/6
f 383/4/6 384/4/6 385/4/6
f 385/4/6 384/4/6 386/4/6
f 387/3/6 388/3/6 389/3/6
f 389/3/6 388/3/6 390/3/6
f 390/3/6 388/3/6 391/3/6
f 391/3/6 388/3/6 392/3/6
f 393/3/6 394/3/6 395/3/6
f 393/3/6 395/3/6 397/3/6
f 395/3/6 396/3/6 397/3/6
f 397/3/6 396/3/6 398/3/6
f 393/3/6 397/3/6 399/3/6
f 399/3/6 397/3/6 400/3/6
f 401/3/6 402/3/6 405/3/6
f 405/3/6 402/3/6 406/3/6
f 407/3/6 408/3/6 411/3/6
f 411/3/6 408/3/6 412/3/6
f 409/3/6 410/3/6 413/3/6
f 413/3/6 410/3/6 414/3/6
f 403/3/6 404/3/6 415/3/6
f 415/3/6 404/3/6 416/3/6
f 419/3/6 420/3/6 422/3/6
f 417/3/6 418/3/6 423/3/6
f 423/3/6 418/3/6 424/3/6
f 421/3/6 422/3/6 425/3/6
f 422/3/6 420/3/6 425/3/6
f 425/3/6 420/3/6 426/3/6
f 421/3/6 425/3/6 427/3/6
f 427/3/6 425/3/6 428/3/6
f 428/3/6 425/3/6 429/3/6
f 426/3/6 420/3/6 430/3/6
f 428/3/6 429/3/6 433/3/6
f 429/3/6 430/3/6 433/3/6
f 430/3/6 420/3/6 434/3/6
f 433/3/6 430/3/6 434/3/6
f 431/3/6 432/3/6 435/3/6
f 435/3/6 432/3/6 436/3/6
f 437/2/6 438/2/6 439/2/6
f 439/2/6 438/2/6 440/2/6
f 441/2/6 442/2/6 444/2/6
f 444/2/6 442/2/6 445/2/6
f 443/2/6 444/2/6 447/2/6
f 447/2/6 444/2/6 448/2/6
f 445/2/6 446/2/6 449/2/6
f 449/2/6 446/2/6 450/2/6
f 448/2/6 449/2/6 451/2/6
f 451/2/6 449/2/6 452/2/6
