# MagicaVoxel @ Ephtracy

# group
o props_lake

# material
mtllib overworld-18-props_lake.mtl
usemtl palette

# normals
vn -1 0 0
vn 1 0 0
vn 0 0 1
vn 0 0 -1
vn 0 -1 0
vn 0 1 0

# texcoords
vt 0.568359 0.5
vt 0.771484 0.5

# verts
v 6.6 0 -14.2
v 6.6 0 -14.8
v 6.6 0.1 -14.2
v 6.6 0.1 -14.7
v 6.6 0.2 -14.7
v 6.6 0.2 -14.8
v 6.7 0 -13.9
v 6.7 0 -14.2
v 6.7 0 -14.8
v 6.7 0 -14.9
v 6.7 0.1 -13.9
v 6.7 0.1 -14.2
v 6.7 0.1 -14.3
v 6.7 0.1 -14.8
v 6.7 0.1 -14.9
v 6.7 0.2 -14.2
v 6.7 0.2 -14.3
v 6.8 0 -14.9
v 6.8 0 -15.1
v 6.8 0.1 -14.9
v 6.8 0.1 -15.1
v 6.9 0 -15.1
v 6.9 0 -15.2
v 6.9 0.1 -15
v 6.9 0.1 -15.1
v 6.9 0.1 -15.2
v 6.9 0.2 -15
v 6.9 0.2 -15.1
v 7.1 0.1 -14
v 7.1 0.1 -14.1
v 7.1 0.2 -14
v 7.1 0.2 -14.1
v 7.3 0.1 -15
v 7.3 0.1 -15.1
v 7.3 0.2 -15
v 7.3 0.2 -15.1
v 7.4 0.1 -14.4
v 7.4 0.1 -14.5
v 7.4 0.2 -14.4
v 7.4 0.2 -14.5
v 6.7 0.1 -14.7
v 6.7 0.1 -14.8
v 6.7 0.2 -14.7
v 6.7 0.2 -14.8
v 6.8 0.1 -14.2
v 6.8 0.1 -14.3
v 6.8 0.2 -14.2
v 6.8 0.2 -14.3
v 7 0.1 -15
v 7 0.1 -15.1
v 7 0.2 -15
v 7 0.2 -15.1
v 7.2 0 -13.9
v 7.2 0 -14
v 7.2 0.1 -13.9
v 7.2 0.1 -14
v 7.2 0.1 -14.1
v 7.2 0.2 -14
v 7.2 0.2 -14.1
v 7.4 0 -14
v 7.4 0 -14.2
v 7.4 0 -15.1
v 7.4 0 -15.2
v 7.4 0.1 -14
v 7.4 0.1 -14.2
v 7.4 0.1 -15
v 7.4 0.1 -15.1
v 7.4 0.1 -15.2
v 7.4 0.2 -15
v 7.4 0.2 -15.1
v 7.5 0 -14.2
v 7.5 0 -14.5
v 7.5 0 -14.9
v 7.5 0 -15.1
v 7.5 0.1 -14.2
v 7.5 0.1 -14.4
v 7.5 0.1 -14.5
v 7.5 0.1 -14.9
v 7.5 0.1 -15.1
v 7.5 0.2 -14.4
v 7.5 0.2 -14.5
v 7.6 0 -14.5
v 7.6 0 -14.9
v 7.6 0.1 -14.5
v 7.6 0.1 -14.9
v 6.7 0 -13.9
v 6.7 0.1 -13.9
v 7.2 0 -13.9
v 7.2 0.1 -13.9
v 7.1 0.1 -14
v 7.1 0.2 -14
v 7.2 0 -14
v 7.2 0.1 -14
v 7.2 0.2 -14
v 7.4 0 -14
v 7.4 0.1 -14
v 6.6 0 -14.2
v 6.6 0.1 -14.2
v 6.7 0 -14.2
v 6.7 0.1 -14.2
v 6.7 0.2 -14.2
v 6.8 0.1 -14.2
v 6.8 0.2 -14.2
v 7.4 0 -14.2
v 7.4 0.1 -14.2
v 7.5 0 -14.2
v 7.5 0.1 -14.2
v 7.4 0.1 -14.4
v 7.4 0.2 -14.4
v 7.5 0.1 -14.4
v 7.5 0.2 -14.4
v 7.5 0 -14.5
v 7.5 0.1 -14.5
v 7.6 0 -14.5
v 7.6 0.1 -14.5
v 6.6 0.1 -14.7
v 6.6 0.2 -14.7
v 6.7 0.1 -14.7
v 6.7 0.2 -14.7
v 6.9 0.1 -15
v 6.9 0.2 -15
v 7 0.1 -15
v 7 0.2 -15
v 7.3 0.1 -15
v 7.3 0.2 -15
v 7.4 0.1 -15
v 7.4 0.2 -15
v 7.1 0.1 -14.1
v 7.1 0.2 -14.1
v 7.2 0.1 -14.1
v 7.2 0.2 -14.1
v 6.7 0.1 -14.3
v 6.7 0.2 -14.3
v 6.8 0.1 -14.3
v 6.8 0.2 -14.3
v 7.4 0.1 -14.5
v 7.4 0.2 -14.5
v 7.5 0.1 -14.5
v 7.5 0.2 -14.5
v 6.6 0 -14.8
v 6.6 0.2 -14.8
v 6.7 0 -14.8
v 6.7 0.1 -14.8
v 6.7 0.2 -14.8
v 6.7 0 -14.9
v 6.7 0.1 -14.9
v 6.8 0 -14.9
v 6.8 0.1 -14.9
v 7.5 0 -14.9
v 7.5 0.1 -14.9
v 7.6 0 -14.9
v 7.6 0.1 -14.9
v 6.8 0 -15.1
v 6.8 0.1 -15.1
v 6.9 0 -15.1
v 6.9 0.1 -15.1
v 6.9 0.2 -15.1
v 7 0.1 -15.1
v 7 0.2 -15.1
v 7.3 0.1 -15.1
v 7.3 0.2 -15.1
v 7.4 0 -15.1
v 7.4 0.1 -15.1
v 7.4 0.2 -15.1
v 7.5 0 -15.1
v 7.5 0.1 -15.1
v 6.9 0 -15.2
v 6.9 0.1 -15.2
v 7.4 0 -15.2
v 7.4 0.1 -15.2
v 6.7 0 -13.9
v 7.2 0 -13.9
v 6.8 0 -14
v 7.1 0 -14
v 7.2 0 -14
v 7.4 0 -14
v 7.1 0 -14.1
v 7.3 0 -14.1
v 6.6 0 -14.2
v 6.7 0 -14.2
v 7.4 0 -14.2
v 7.5 0 -14.2
v 6.7 0 -14.3
v 6.8 0 -14.3
v 7.3 0 -14.3
v 7.4 0 -14.3
v 7.5 0 -14.5
v 7.6 0 -14.5
v 7.4 0 -14.6
v 7.5 0 -14.6
v 6.7 0 -14.7
v 6.8 0 -14.7
v 6.6 0 -14.8
v 6.7 0 -14.8
v 7.4 0 -14.8
v 7.5 0 -14.8
v 6.7 0 -14.9
v 6.8 0 -14.9
v 6.9 0 -14.9
v 7.5 0 -14.9
v 7.6 0 -14.9
v 6.9 0 -15
v 7 0 -15
v 7.3 0 -15
v 7.4 0 -15
v 6.8 0 -15.1
v 6.9 0 -15.1
v 7 0 -15.1
v 7.3 0 -15.1
v 7.4 0 -15.1
v 7.5 0 -15.1
v 6.9 0 -15.2
v 7.4 0 -15.2
v 6.7 0.1 -13.9
v 7.2 0.1 -13.9
v 6.8 0.1 -14
v 7.1 0.1 -14
v 7.2 0.1 -14
v 7.4 0.1 -14
v 7.1 0.1 -14.1
v 7.2 0.1 -14.1
v 7.3 0.1 -14.1
v 6.6 0.1 -14.2
v 6.7 0.1 -14.2
v 6.8 0.1 -14.2
v 7.4 0.1 -14.2
v 7.5 0.1 -14.2
v 6.7 0.1 -14.3
v 6.8 0.1 -14.3
v 7.3 0.1 -14.3
v 7.4 0.1 -14.3
v 7.4 0.1 -14.4
v 7.5 0.1 -14.4
v 7.4 0.1 -14.5
v 7.5 0.1 -14.5
v 7.6 0.1 -14.5
v 7.4 0.1 -14.6
v 7.5 0.1 -14.6
v 6.6 0.1 -14.7
v 6.7 0.1 -14.7
v 6.8 0.1 -14.7
v 6.7 0.1 -14.8
v 7.4 0.1 -14.8
v 7.5 0.1 -14.8
v 6.7 0.1 -14.9
v 6.8 0.1 -14.9
v 6.9 0.1 -14.9
v 7.5 0.1 -14.9
v 7.6 0.1 -14.9
v 6.9 0.1 -15
v 7 0.1 -15
v 7.3 0.1 -15
v 7.4 0.1 -15
v 6.8 0.1 -15.1
v 6.9 0.1 -15.1
v 7 0.1 -15.1
v 7.3 0.1 -15.1
v 7.4 0.1 -15.1
v 7.5 0.1 -15.1
v 6.9 0.1 -15.2
v 7.4 0.1 -15.2
v 7.1 0.2 -14
v 7.2 0.2 -14
v 7.1 0.2 -14.1
v 7.2 0.2 -14.1
v 6.7 0.2 -14.2
v 6.8 0.2 -14.2
v 6.7 0.2 -14.3
v 6.8 0.2 -14.3
v 7.4 0.2 -14.4
v 7.5 0.2 -14.4
v 7.4 0.2 -14.5
v 7.5 0.2 -14.5
v 6.6 0.2 -14.7
v 6.7 0.2 -14.7
v 6.6 0.2 -14.8
v 6.7 0.2 -14.8
v 6.9 0.2 -15
v 7 0.2 -15
v 7.3 0.2 -15
v 7.4 0.2 -15
v 6.9 0.2 -15.1
v 7 0.2 -15.1
v 7.3 0.2 -15.1
v 7.4 0.2 -15.1

# faces
f 3/1/1 2/1/1 1/1/1
f 4/1/1 2/1/1 3/1/1
f 5/1/1 2/1/1 4/1/1
f 6/1/1 2/1/1 5/1/1
f 11/1/1 8/1/1 7/1/1
f 12/1/1 8/1/1 11/1/1
f 14/1/1 10/1/1 9/1/1
f 15/1/1 10/1/1 14/1/1
f 16/1/1 13/1/1 12/1/1
f 17/1/1 13/1/1 16/1/1
f 20/1/1 19/1/1 18/1/1
f 21/1/1 19/1/1 20/1/1
f 25/1/1 23/1/1 22/1/1
f 26/1/1 23/1/1 25/1/1
f 27/1/1 25/1/1 24/1/1
f 28/1/1 25/1/1 27/1/1
f 31/1/1 30/1/1 29/1/1
f 32/1/1 30/1/1 31/1/1
f 35/1/1 34/1/1 33/1/1
f 36/1/1 34/1/1 35/1/1
f 39/1/1 38/1/1 37/1/1
f 40/1/1 38/1/1 39/1/1
f 41/1/2 42/1/2 43/1/2
f 43/1/2 42/1/2 44/1/2
f 45/1/2 46/1/2 47/1/2
f 47/1/2 46/1/2 48/1/2
f 49/1/2 50/1/2 51/1/2
f 51/1/2 50/1/2 52/1/2
f 53/1/2 54/1/2 55/1/2
f 55/1/2 54/1/2 56/1/2
f 56/1/2 57/1/2 58/1/2
f 58/1/2 57/1/2 59/1/2
f 60/1/2 61/1/2 64/1/2
f 64/1/2 61/1/2 65/1/2
f 62/1/2 63/1/2 67/1/2
f 67/1/2 63/1/2 68/1/2
f 66/1/2 67/1/2 69/1/2
f 69/1/2 67/1/2 70/1/2
f 71/1/2 72/1/2 75/1/2
f 75/1/2 72/1/2 76/1/2
f 76/1/2 72/1/2 77/1/2
f 73/1/2 74/1/2 78/1/2
f 78/1/2 74/1/2 79/1/2
f 76/1/2 77/1/2 80/1/2
f 80/1/2 77/1/2 81/1/2
f 82/1/2 83/1/2 84/1/2
f 84/1/2 83/1/2 85/1/2
f 88/1/3 87/1/3 86/1/3
f 89/1/3 87/1/3 88/1/3
f 93/1/3 91/1/3 90/1/3
f 94/1/3 91/1/3 93/1/3
f 95/1/3 93/1/3 92/1/3
f 96/1/3 93/1/3 95/1/3
f 99/1/3 98/1/3 97/1/3
f 100/1/3 98/1/3 99/1/3
f 102/1/3 101/1/3 100/1/3
f 103/1/3 101/1/3 102/1/3
f 106/1/3 105/1/3 104/1/3
f 107/1/3 105/1/3 106/1/3
f 110/1/3 109/1/3 108/1/3
f 111/1/3 109/1/3 110/1/3
f 114/1/3 113/1/3 112/1/3
f 115/1/3 113/1/3 114/1/3
f 118/1/3 117/1/3 116/1/3
f 119/1/3 117/1/3 118/1/3
f 122/1/3 121/1/3 120/1/3
f 123/1/3 121/1/3 122/1/3
f 126/1/3 125/1/3 124/1/3
f 127/1/3 125/1/3 126/1/3
f 128/1/4 129/1/4 130/1/4
f 130/1/4 129/1/4 131/1/4
f 132/1/4 133/1/4 134/1/4
f 134/1/4 133/1/4 135/1/4
f 136/1/4 137/1/4 138/1/4
f 138/1/4 137/1/4 139/1/4
f 140/1/4 141/1/4 142/1/4
f 142/1/4 141/1/4 143/1/4
f 143/1/4 141/1/4 144/1/4
f 145/1/4 146/1/4 147/1/4
f 147/1/4 146/1/4 148/1/4
f 149/1/4 150/1/4 151/1/4
f 151/1/4 150/1/4 152/1/4
f 153/1/4 154/1/4 155/1/4
f 155/1/4 154/1/4 156/1/4
f 156/1/4 157/1/4 158/1/4
f 158/1/4 157/1/4 159/1/4
f 160/1/4 161/1/4 163/1/4
f 163/1/4 161/1/4 164/1/4
f 162/1/4 163/1/4 165/1/4
f 165/1/4 163/1/4 166/1/4
f 167/1/4 168/1/4 169/1/4
f 169/1/4 168/1/4 170/1/4
f 173/1/5 172/1/5 171/1/5
f 174/1/5 172/1/5 173/1/5
f 175/1/5 172/1/5 174/1/5
f 177/2/5 174/2/5 173/2/5
f 177/1/5 176/1/5 175/1/5
f 177/1/5 175/1/5 174/1/5
f 178/1/5 176/1/5 177/1/5
f 180/1/5 173/1/5 171/1/5
f 181/1/5 176/1/5 178/1/5
f 183/1/5 180/1/5 179/1/5
f 183/1/5 173/1/5 180/1/5
f 184/2/5 177/2/5 173/2/5
f 184/1/5 173/1/5 183/1/5
f 184/2/5 178/2/5 177/2/5
f 185/1/5 182/1/5 181/1/5
f 185/2/5 178/2/5 184/2/5
f 185/1/5 181/1/5 178/1/5
f 186/1/5 182/1/5 185/1/5
f 187/1/5 182/1/5 186/1/5
f 189/2/5 184/2/5 183/2/5
f 189/1/5 188/1/5 187/1/5
f 189/1/5 187/1/5 186/1/5
f 189/2/5 186/2/5 185/2/5
f 189/2/5 185/2/5 184/2/5
f 190/1/5 188/1/5 189/1/5
f 191/1/5 183/1/5 179/1/5
f 191/2/5 189/2/5 183/2/5
f 191/2/5 190/2/5 189/2/5
f 192/2/5 190/2/5 191/2/5
f 193/1/5 191/1/5 179/1/5
f 193/1/5 192/1/5 191/1/5
f 194/1/5 192/1/5 193/1/5
f 195/2/5 190/2/5 192/2/5
f 196/1/5 188/1/5 190/1/5
f 196/2/5 190/2/5 195/2/5
f 197/1/5 192/1/5 194/1/5
f 198/2/5 195/2/5 192/2/5
f 198/1/5 192/1/5 197/1/5
f 199/2/5 195/2/5 198/2/5
f 200/1/5 188/1/5 196/1/5
f 200/1/5 196/1/5 195/1/5
f 201/1/5 188/1/5 200/1/5
f 202/2/5 195/2/5 199/2/5
f 202/1/5 199/1/5 198/1/5
f 203/2/5 195/2/5 202/2/5
f 204/2/5 195/2/5 203/2/5
f 205/1/5 200/1/5 195/1/5
f 205/2/5 195/2/5 204/2/5
f 206/1/5 202/1/5 198/1/5
f 206/1/5 203/1/5 202/1/5
f 207/1/5 203/1/5 206/1/5
f 208/2/5 204/2/5 203/2/5
f 208/1/5 203/1/5 207/1/5
f 209/1/5 205/1/5 204/1/5
f 209/2/5 204/2/5 208/2/5
f 210/1/5 200/1/5 205/1/5
f 210/1/5 205/1/5 209/1/5
f 211/1/5 200/1/5 210/1/5
f 212/1/5 209/1/5 208/1/5
f 212/1/5 210/1/5 209/1/5
f 212/1/5 208/1/5 207/1/5
f 213/1/5 210/1/5 212/1/5
f 214/1/6 215/1/6 216/1/6
f 216/1/6 215/1/6 217/1/6
f 217/1/6 215/1/6 218/1/6
f 216/2/6 217/2/6 220/2/6
f 218/1/6 219/1/6 221/1/6
f 221/1/6 219/1/6 222/1/6
f 214/1/6 216/1/6 224/1/6
f 216/2/6 220/2/6 225/2/6
f 220/2/6 221/2/6 225/2/6
f 224/1/6 216/1/6 225/1/6
f 221/2/6 222/2/6 225/2/6
f 222/1/6 219/1/6 226/1/6
f 223/1/6 224/1/6 228/1/6
f 225/2/6 222/2/6 229/2/6
f 226/1/6 227/1/6 230/1/6
f 222/1/6 226/1/6 230/1/6
f 229/2/6 222/2/6 230/2/6
f 230/1/6 227/1/6 231/1/6
f 228/2/6 229/2/6 232/2/6
f 231/1/6 227/1/6 232/1/6
f 230/2/6 231/2/6 232/2/6
f 229/2/6 230/2/6 232/2/6
f 232/1/6 227/1/6 233/1/6
f 228/2/6 232/2/6 234/2/6
f 234/1/6 235/1/6 237/1/6
f 235/1/6 236/1/6 237/1/6
f 228/2/6 234/2/6 237/2/6
f 237/1/6 236/1/6 238/1/6
f 223/1/6 228/1/6 239/1/6
f 228/2/6 237/2/6 240/2/6
f 239/1/6 228/1/6 240/1/6
f 237/2/6 238/2/6 240/2/6
f 240/2/6 238/2/6 241/2/6
f 240/1/6 241/1/6 242/1/6
f 241/2/6 238/2/6 243/2/6
f 238/1/6 236/1/6 244/1/6
f 243/2/6 238/2/6 244/2/6
f 242/1/6 241/1/6 245/1/6
f 241/2/6 243/2/6 246/2/6
f 245/1/6 241/1/6 246/1/6
f 246/2/6 243/2/6 247/2/6
f 244/1/6 236/1/6 248/1/6
f 243/1/6 244/1/6 248/1/6
f 248/1/6 236/1/6 249/1/6
f 247/2/6 243/2/6 250/2/6
f 246/1/6 247/1/6 250/1/6
f 250/2/6 243/2/6 251/2/6
f 251/2/6 243/2/6 252/2/6
f 243/1/6 248/1/6 253/1/6
f 252/2/6 243/2/6 253/2/6
f 246/1/6 250/1/6 254/1/6
f 254/1/6 250/1/6 255/1/6
f 251/2/6 252/2/6 256/2/6
f 256/2/6 252/2/6 257/2/6
f 253/1/6 248/1/6 258/1/6
f 258/1/6 248/1/6 259/1/6
f 256/1/6 257/1/6 260/1/6
f 257/1/6 258/1/6 260/1/6
f 255/1/6 256/1/6 260/1/6
f 260/1/6 258/1/6 261/1/6
f 262/1/6 263/1/6 264/1/6
f 264/1/6 263/1/6 265/1/6
f 266/1/6 267/1/6 268/1/6
f 268/1/6 267/1/6 269/1/6
f 270/1/6 271/1/6 272/1/6
f 272/1/6 271/1/6 273/1/6
f 274/1/6 275/1/6 276/1/6
f 276/1/6 275/1/6 277/1/6
f 278/1/6 279/1/6 282/1/6
f 282/1/6 279/1/6 283/1/6
f 280/1/6 281/1/6 284/1/6
f 284/1/6 281/1/6 285/1/6
